<svg xmlns="http://www.w3.org/2000/svg" xmlns:xlink="http://www.w3.org/1999/xlink" width="1063" height="700" viewBox="0 0 1063 700">
  <defs>
    <linearGradient id="linear-gradient" y1="0.5" x2="1" y2="0.5" gradientUnits="objectBoundingBox">
      <stop offset="0" stop-color="#ffc237"/>
      <stop offset="1" stop-color="#ffa233"/>
    </linearGradient>
    <linearGradient id="linear-gradient-5" y1="0.5" x2="1" y2="0.5" gradientUnits="objectBoundingBox">
      <stop offset="0" stop-color="#c4cce7"/>
      <stop offset="1" stop-color="#a0b0d9"/>
    </linearGradient>
    <linearGradient id="linear-gradient-7" y1="0.5" x2="1" y2="0.5" gradientUnits="objectBoundingBox">
      <stop offset="0" stop-color="#454676"/>
      <stop offset="1" stop-color="#363761"/>
    </linearGradient>
    <linearGradient id="linear-gradient-8" x1="-0.097" y1="0.5" x2="1" y2="0.5" xlink:href="#linear-gradient-5"/>
    <linearGradient id="linear-gradient-9" x1="-1.053" y1="0.5" x2="3.941" y2="0.5" gradientUnits="objectBoundingBox">
      <stop offset="0" stop-color="#a0b0d9"/>
      <stop offset="1" stop-color="#c4cce7"/>
    </linearGradient>
    <linearGradient id="linear-gradient-10" x1="0" y1="0.5" x2="1.088" y2="0.5" xlink:href="#linear-gradient-5"/>
    <linearGradient id="linear-gradient-11" x1="-1.374" y1="0.5" x2="1.247" y2="0.5" xlink:href="#linear-gradient-9"/>
    <linearGradient id="linear-gradient-13" x1="2.259" y1="58.078" x2="3.256" y2="58.078" xlink:href="#linear-gradient-7"/>
    <clipPath id="clip-iPhone_12_12_Pro_2">
      <rect width="1063" height="700"/>
    </clipPath>
  </defs>
  <g id="iPhone_12_12_Pro_2" data-name="iPhone 12, 12 Pro – 2" clip-path="url(#clip-iPhone_12_12_Pro_2)">
    <g id="Group_9872" data-name="Group 9872" transform="translate(-43.436 -28.685)">
      <path id="Path_12008" data-name="Path 12008" d="M288.4,787.421s-122.124-118.535-44.43-257.994,182.045-69.326,177-231.644,239.986-176.264,317.982-129.2,77.527,103.751,238.543,85,191.775,137.588,149.885,217.268c-59.434,113.053,164.955,94.407,23.565,316.572Z" transform="translate(-130.395 -87.526)" fill="#ebf3fa"/>
      <path id="Path_12009" data-name="Path 12009" d="M1779.87,888.544s25.949-109.984,113.489-122.076c0,0,17.032-2.092,22.7,16.663s-28.193,18.89-49.126,26.434S1797.2,849.089,1779.87,888.544Z" transform="translate(-1088.565 -468.727)" fill="#aec3ff" opacity="0.3"/>
      <path id="Path_12010" data-name="Path 12010" d="M1774.045,831.254s-9.1-91.1,54.782-123.435c0,0,12.5-6.091,21.785,6.784s-16.623,21.9-30.672,33.2S1776.929,796.458,1774.045,831.254Z" transform="translate(-1084.729 -432.02)" fill="#aec3ff" opacity="0.3"/>
      <rect id="Rectangle_646" data-name="Rectangle 646" width="1006.27" height="2.764" rx="1.382" transform="translate(71.801 697.132)" fill="#2e3552"/>
      <path id="Path_12011" data-name="Path 12011" d="M1783.231,1466.941c19.716-23.263-16.037-58.948-16.037-58.948s-61.552,1.449-68.128-5.936,52.384-11.514,52.384-11.514c-9.27-16.7-55.942-43.371-55.942-43.371s-47.748,36.617-52.3,27.843,43.933-30.266,43.933-30.266c-14.981-12.019-42.4-13.982-42.4-13.982-40.96,2.155-36.078,54.64-36.078,54.64s-16.821,12.333-43.82,15.3h0a70.929,70.929,0,0,0-13.142,1.937l2.845,4.13c1.34-.425,2.667-.791,3.978-1.088a.029.029,0,0,1,.024-.005l.057-.012c.833-.157,2.021-.376,3.477-.631h.005s0,0,.007,0c3.339-.44,5.751-.845,7.44-1.213a.05.05,0,0,0,.015,0c10.359-1.561,24.214-3.074,28.835-.9a9.73,9.73,0,0,1,1.285-2.189l-1.285,2.189c-10.279,17.506,11.548,54.594,29.156,71.5s17.248,4.5,18.958-12.316-15.974-37.4-16.962-46.4,9.157-1.84,17.192,11.985-.571,29.435,12.02,52.035S1722.364,1491,1722.364,1491c-14.633-11.513-24.644-43.338-20.29-47.827s30.636,34.742,36.326,39.758S1763.515,1490.2,1783.231,1466.941Z" transform="translate(-949.016 -813.894)" fill="#cde0fb"/>
      <path id="Path_12012" data-name="Path 12012" d="M866.768,494.983c20.322-34.1,79.357-5.14,79.357-5.14s24.2,76.4,36.071,81.385-7.937-69.364-7.937-69.364c24.475,4.365,77.024,50.574,77.024,50.574s-24.931,74.255-12.2,76.161,18.721-66.875,18.721-66.875c21.124,13.373,35.115,46.3,35.115,46.3,14.638,51.346-52.05,67.492-52.05,67.492s-8.085,25.92-.335,60.417h0a92.4,92.4,0,0,1,3.163,17l-6.287-1.76c-.042-1.83-.151-3.618-.34-5.358a.038.038,0,0,0,0-.032c0-.025-.006-.05-.009-.075-.158-1.093-.391-2.648-.691-4.548v-.007s0-.005,0-.009c-.868-4.3-1.388-7.439-1.648-9.674a.072.072,0,0,1,0-.02c-2.452-13.414-6.437-31.114-11.064-35.888a12.629,12.629,0,0,0,2.152-2.507l-2.152,2.507c-17.217,20.049-72.1,8.829-100.358-5.713s-12.823-19.339,7.161-28.543,52.794,3.881,64.292,1.3-1.6-12.052-22.015-16.11-36,13.131-69.149,7.168-40.744-73.575-40.744-73.575c20.355,13.159,63.77,12.049,67.459,4.793S874.582,561.826,866,556.938,846.447,529.082,866.768,494.983Z" transform="translate(-523.057 -292.57)" fill="#cde0fb" opacity="0.5"/>
      <path id="Path_12013" data-name="Path 12013" d="M1469.132,504.44a15.584,15.584,0,0,1,1.18-6.11,14.281,14.281,0,0,1,3.335-4.858,15.314,15.314,0,0,1,5.182-3.205,19.091,19.091,0,0,1,6.824-1.152,19.523,19.523,0,0,1,6.875,1.152,15.226,15.226,0,0,1,5.234,3.205,14.3,14.3,0,0,1,3.335,4.858,15.615,15.615,0,0,1,1.18,6.11,15.246,15.246,0,0,1-1.18,6.059,14.4,14.4,0,0,1-3.335,4.808,15.185,15.185,0,0,1-5.234,3.205,19.534,19.534,0,0,1-6.875,1.152,19.1,19.1,0,0,1-6.824-1.152,15.273,15.273,0,0,1-5.182-3.205,14.375,14.375,0,0,1-3.335-4.808A15.216,15.216,0,0,1,1469.132,504.44Zm28.835-28.5h-24.627l-3.489-84.15h31.605Z" transform="translate(-898.518 -239.617)" fill="#f78248"/>
      <path id="Path_12014" data-name="Path 12014" d="M1277.678,333.89a11.962,11.962,0,0,1,.906-4.69,10.961,10.961,0,0,1,2.56-3.728,11.753,11.753,0,0,1,3.977-2.46,14.653,14.653,0,0,1,5.237-.884,14.987,14.987,0,0,1,5.277.884,11.689,11.689,0,0,1,4.017,2.46,10.98,10.98,0,0,1,2.559,3.728,11.984,11.984,0,0,1,.906,4.69,11.7,11.7,0,0,1-.906,4.651,11.049,11.049,0,0,1-2.559,3.69,11.653,11.653,0,0,1-4.017,2.46,15,15,0,0,1-5.277.884,14.661,14.661,0,0,1-5.237-.884,11.717,11.717,0,0,1-3.977-2.46,11.029,11.029,0,0,1-2.56-3.69A11.676,11.676,0,0,1,1277.678,333.89Zm22.13-21.875h-18.9l-2.677-64.584h24.257Z" transform="translate(-781.425 -151.328)" fill="#aec3ff"/>
      <path id="Path_12015" data-name="Path 12015" d="M2016.233,1120.789a127.434,127.434,0,0,1-13.916,20.751v0c-5.283,6.307-10.69,11.1-15.254,12.723l-.035.012c-.239.082-.473.161-.708.223a.056.056,0,0,1-.035.008l0,0a8.311,8.311,0,0,1-2.651.34c-14.975-.672-30.76-32.8-30.76-32.8a11.42,11.42,0,0,1,3.323-6.5,13.472,13.472,0,0,1,4.5-2.96s16.129,16.563,20.07,17.756c2.479.747,5.736-10.819,10.4-25.345s21.075-18.108,21.075-18.108S2028.843,1097.407,2016.233,1120.789Z" transform="translate(-1194.372 -664.746)" fill="#2bbd24"/>
      <path id="Path_12016" data-name="Path 12016" d="M2054.929,1209.74v0c-5.282,6.307-10.69,11.1-15.254,12.723l-.035.012-.708.223-.039.012,0,0c.164-.109,5.048-2.642,5.814-7.343.783-4.8-4.3-8.734,8.473-16.164C2060.628,1194.872,2054.929,1209.74,2054.929,1209.74Z" transform="translate(-1246.983 -732.946)" fill="#057400"/>
      <path id="Path_12017" data-name="Path 12017" d="M2050.075,1764.523h35.1c2.515-1.705-.678-18.379-.678-18.379s-9.58-3.635-11.235,3.757-12.2,9.735-17.781,10.636C2051.664,1761.158,2050.457,1763.255,2050.075,1764.523Z" transform="translate(-1253.822 -1067.391)" fill="#24406d"/>
      <path id="Path_12018" data-name="Path 12018" d="M2118.472,1330.941s-1.106,20.477-2.491,44.2c-1,17.013-2.131,35.7-3.1,49.693-.129,1.857-.258,3.632-.379,5.31-.035.52-.074,1.036-.113,1.552a312.012,312.012,0,0,1-10.917,58.87c-9.869,2.08-14.326-1.724-14.326-1.724s-6.8-79.691-9.318-111.832c-1.853-23.66-3.433-58.108-3.433-58.108Z" transform="translate(-1268.693 -806.64)" fill="#ff9e55"/>
      <path id="Path_12019" data-name="Path 12019" d="M2145.671,1424.585c-1,17.013-2.131,35.7-3.1,49.693-6.452-15.218-19.632-74.534-19.632-74.534Z" transform="translate(-1298.382 -856.081)" fill="#ed7d2b"/>
      <path id="Path_12020" data-name="Path 12020" d="M2184.1,1764.523h35.1c2.514-1.705-.678-18.379-.678-18.379s-9.58-3.635-11.234,3.757-12.2,9.735-17.782,10.636C2185.692,1761.158,2184.486,1763.255,2184.1,1764.523Z" transform="translate(-1335.793 -1067.391)" fill="#24406d"/>
      <path id="Path_12021" data-name="Path 12021" d="M2098.939,1320.422s25.066,62.393,33.078,86.044c5.708,16.847,21.8,75.946,21.8,75.946s7,2.13,12.883-1.988c0,0,5.989-60.38-6.108-77.405-6.418-9.033-1.6-93.9-27.617-94.623S2098.939,1320.422,2098.939,1320.422Z" transform="translate(-1283.707 -800.194)" fill="#ff9e55"/>
      <path id="Path_12022" data-name="Path 12022" d="M2129.4,1159.719c-.105,8.872-.2,15.386-.18,17.032.071,5.368-3.363,6.58-6.9,7.4,0,0-3.269.7-7.394,1.4a81.333,81.333,0,0,1-12.352,1.321,111.414,111.414,0,0,1-32.328-5.322c-3.312,0-4.821-5.122-5.365-12.274-.367-4.841,1.126-53.114,1.314-65.169.129-8.645,4.875-16.633,6.2-17.8,12.289-10.866,48.555-9.5,55.081-2,1.615,1.853,2.084,19.726,2.139,39.3C2129.646,1136.212,2129.517,1149.522,2129.4,1159.719Z" transform="translate(-1262.838 -659.559)" fill="#2bbd24"/>
      <path id="Path_12023" data-name="Path 12023" d="M2143.955,1056.188c-4.629,5.017-20.179,4.274-19.719-.106.063-.54.165-3.746.215-4.242.039-.4.078-.79.109-1.158q.158-1.618.262-2.858c.208-2.4.274-3.7.274-3.7h.015c.446-.125,10.444-2.964,15.417-4.141,1.67-.395,2.777-.6,2.757-.458C2141.761,1050.694,2145.471,1054.542,2143.955,1056.188Z" transform="translate(-1299.172 -635.742)" fill="#ffb27d"/>
      <path id="Path_12024" data-name="Path 12024" d="M2142,1044.07s-4.176,4.243-16.235,4.547c.208-2.4.274-3.7.274-3.7h.016c.446-.125,10.444-2.964,15.417-4.141C2142.344,1041.134,2141.184,1043.468,2142,1044.07Z" transform="translate(-1300.112 -636.535)" fill="#ed975d"/>
      <path id="Path_12025" data-name="Path 12025" d="M2115.357,1001.9a37.734,37.734,0,0,0,6.946,1.619c5.692.769,13.177.315,15.528-6.572,3.96-11.592,9.02-18.542-2.635-23.276-6.24-2.534-10.231-2.669-12.942-1.7a9.377,9.377,0,0,0-4.8,4.151C2115.2,979.67,2110.642,999.872,2115.357,1001.9Z" transform="translate(-1292.489 -594.116)" fill="#ffb27d"/>
      <path id="Path_12026" data-name="Path 12026" d="M2122.374,954.741a5.5,5.5,0,0,0,2.1,10.005c2.94.517,5.406.62,6.833,1.254,2.9,1.288,5.39,2.654,4.7,7.151-.233,1.529-.978,3.392,2.958,2.468a1.914,1.914,0,0,1,1.43.085c1.633.969-.454,5.664-1.083,6.681,0,0-.906,3.364,1.1,5,.243.2,4.192,1.922,13.707-12.64a13.522,13.522,0,0,0,.614-12.393c-2.307-4.958-8.742-11.228-20.863-11.228A23.117,23.117,0,0,0,2122.374,954.741Z" transform="translate(-1296.527 -581.705)" fill="#233862"/>
      <path id="Path_12027" data-name="Path 12027" d="M2212.455,1222.977c-1.771,8.231-1.32,8.317-4.037,6.158-11.069-8.8-7.834-13.407-5.375-21.032s-6.174-19.55,0-24.633c6.037-4.97,9.478,3.042,9.626,3.4C2212.705,1199.47,2212.576,1212.779,2212.455,1222.977Z" transform="translate(-1345.897 -722.816)" fill="#057400"/>
      <path id="Path_12028" data-name="Path 12028" d="M2198.519,1285.014s-4.172,6.823-6.907,6.582-6.427-1.261-8.558.773-5.566,7.28-4.606,8.677,4.819.158,7.592-1.371,7.14.754,9.468-.984,7.9-8.637,7.9-8.637Z" transform="translate(-1332.232 -785.912)" fill="#ffb27d"/>
      <path id="Path_12029" data-name="Path 12029" d="M2214.343,1093.576s34.626,32.583,30.13,54.257c-2.049,9.875-8.406,18.208-25.35,31.7,0,0-8.016-5.54-9.775-10.036,0,0,15.379-21.662,14.785-25.35-.728-4.514-11.226-15.836-14.993-17.6S2205.718,1097.357,2214.343,1093.576Z" transform="translate(-1349.708 -668.829)" fill="#2bbd24"/>
      <path id="Path_12030" data-name="Path 12030" d="M2203.658,1298.028s-3.65-1.6-4.823-2.281-.913.423-.554.977a4.048,4.048,0,0,0,2.77,1.922A4.574,4.574,0,0,0,2203.658,1298.028Z" transform="translate(-1344.279 -792.344)" fill="#ffb27d"/>
      <path id="Path_12031" data-name="Path 12031" d="M618.75,1002.193c-1.252-2.414,27.312-11.109,27.765,12.72,0,0,53.509-1.315,27.96-31.14-8.845-10.325-7.935-18.862-7.67-26.809s-5.509-31.046-25.315-28.72c0,0-5.187-2.11-11.66,1.248C615.109,937.129,582.133,1010.981,618.75,1002.193Z" transform="translate(-368.229 -567.312)" fill="#163560"/>
      <path id="Path_12032" data-name="Path 12032" d="M870.234,1166.062s3.483-5.3,6.29-5.406,8.005-1.559,7.589-.52-3.639,1.143-3.951,1.767,4.782,1.559,6.238,1.664,4.886,0,4.782.728-6.184,3.743-10.473,3.327-9.592,1.248-9.592,1.248Z" transform="translate(-532.233 -709.309)" fill="#ffb27d"/>
      <path id="Path_12033" data-name="Path 12033" d="M740.543,1113.726a52.211,52.211,0,0,0,5.328,8.057c4.139,5.184,10.52,11.172,18.533,12.354a19.894,19.894,0,0,0,11.01-1.787l.012,0c9.731-4.32,17.049-14.254,17.049-14.254a8,8,0,0,0-1.091-7.851s-19.65,4.42-21.521,3.484-13.377-26.461-15.449-30.712c-4.405-9.036-11.4-11.628-11.4-11.628Z" transform="translate(-452.915 -655.257)" fill="#632c84"/>
      <path id="Path_12034" data-name="Path 12034" d="M753.286,1184.742c4.139,5.184,10.52,11.172,18.533,12.354a19.894,19.894,0,0,0,11.01-1.787c-.38.05-10.1,1.25-13.973-5.68-3.952-7.071-8.225-18.3-14.095-14.557C752.228,1176.689,752.34,1180.7,753.286,1184.742Z" transform="translate(-460.33 -718.217)" fill="#3a1053"/>
      <path id="Path_12035" data-name="Path 12035" d="M543.958,1722.423s-6,5.472-4.826,9.36,6.581,6.48,7.312,11.232,3.656,7.344,6.288,7.344h12.55s1.937-3.344-2.742-4.352-6.444-6.592-6.152-11.776a91.384,91.384,0,0,0-.438-12.1l-9.945-2.3Z" transform="translate(-329.64 -1051.845)" fill="#1d3356"/>
      <path id="Path_12036" data-name="Path 12036" d="M681.147,1732.485s-2.157,23.181.475,24.477l33.688-.069s0-3.888-5.411-4.752-14.916-4.032-16.525-11.088S681.147,1732.485,681.147,1732.485Z" transform="translate(-416.079 -1059.584)" fill="#1d3356"/>
      <path id="Path_12037" data-name="Path 12037" d="M615.385,1093.71a134.115,134.115,0,0,0,0,15.57c.334,5.63,6.029,13.171,6.837,15.036,2.027,4.678,4.314,5.44,4.314,5.44l17.688,4.335,6.219,1.522,19.612-5.858s8.933-24.933,5.346-38.969A107.877,107.877,0,0,0,666.334,1067s-13.3-5.247-36.842-1.329Z" transform="translate(-376.231 -650.876)" fill="#632c84"/>
      <path id="Path_12038" data-name="Path 12038" d="M629.066,1177.178c.334,5.63.851,10.873,1.659,12.738,2.027,4.678,4.314,5.439,4.314,5.439l17.688,4.335,7.682-2.258s-25.645-3.886-22.8-25.95Z" transform="translate(-384.735 -716.477)" fill="#f2ccaa"/>
      <path id="Path_12039" data-name="Path 12039" d="M702.04,1242.691s9.712,30.232,10.337,40.524-18.566,146.218-19.338,150.96c-.728,4.471-6.279,7.321-6.279,7.321a8.4,8.4,0,0,1-6.2.477c-5.055-1.427-6.654-3.137-6.654-3.137s-7.559-96.941-2.881-131.57a548.516,548.516,0,0,0,4.733-64.576Z" transform="translate(-409.465 -760.027)" fill="#233862"/>
      <path id="Path_12040" data-name="Path 12040" d="M592.127,1240.371s-14.816,19.879-16.2,33.316-2.167,60.639-5.109,73.739-13.754,38.31-13.754,79.169a8.15,8.15,0,0,0,4.594,3.589,37.744,37.744,0,0,0,4.04,1.117,6.35,6.35,0,0,0,7.1-3.372c7.309-14.716,30.592-62.18,31.786-72.033.845-6.973,8.2-53.119,24.232-80.2,3.85-6.5-2.362-32.353-2.362-32.353Z" transform="translate(-340.701 -758.608)" fill="#2b478b"/>
      <path id="Path_12041" data-name="Path 12041" d="M686.729,1230.676s-3.9,3.084-11.645,3.24c-9.252.186-32.178-2.359-32.178-2.359a18.955,18.955,0,0,0-.977,5.851s28,7.063,44.223,1.031C686.152,1238.44,688.245,1234.5,686.729,1230.676Z" transform="translate(-392.602 -752.679)" fill="#233862"/>
      <path id="Path_12042" data-name="Path 12042" d="M722.139,1239.72a4.254,4.254,0,1,1,4.222,4.778A4.531,4.531,0,0,1,722.139,1239.72Zm1.4,0a2.868,2.868,0,1,0,2.822-3.379A3.141,3.141,0,0,0,723.538,1239.72Z" transform="translate(-441.659 -755.288)" fill="#fff"/>
      <path id="Path_12043" data-name="Path 12043" d="M572.367,1188.067l22.737,19.8a3.944,3.944,0,0,0,5.565-.384l29.012-33.318a3.944,3.944,0,0,0-.385-5.565l-22.737-19.8a3.945,3.945,0,0,0-5.565.384L571.982,1182.5A3.945,3.945,0,0,0,572.367,1188.067Z" transform="translate(-349.23 -702.01)" fill="#f78248"/>
      <path id="Path_12044" data-name="Path 12044" d="M657.966,1244.992c.323.086,12.077,1.467,12.079,3.9,0,2.809-3.445,6.571-6.693,6.394-1.316-.072-7.38-5.649-7.38-5.649Z" transform="translate(-401.192 -761.434)" fill="#ffb27d"/>
      <path id="Path_12045" data-name="Path 12045" d="M676.092,1042.138c1.338-3.244,2.118-8.184,2.1-14.3l.888.175,14.931,2.957s-.34,4.7-.35,9.126c0,.037,0,.074,0,.11-.018,3.844,2.6,7.7-3.569,9.227C688.182,1049.905,673.284,1048.95,676.092,1042.138Z" transform="translate(-413.282 -628.625)" fill="#ffb27d"/>
      <path id="Path_12046" data-name="Path 12046" d="M699.26,1031.246s-.34,4.7-.35,9.126c-8.355-.235-12.772-7.857-14.581-12.082Z" transform="translate(-418.534 -628.9)" fill="#e8945b"/>
      <path id="Path_12047" data-name="Path 12047" d="M698.456,994.167s-19.769.326-19.782-11.988-2.574-20.565,10.047-21.294,15.079,3.968,16.083,8.076S703.6,993.766,698.456,994.167Z" transform="translate(-414.939 -587.629)" fill="#ffb27d"/>
      <path id="Path_12048" data-name="Path 12048" d="M687.715,956.287S682.3,970.733,674,972.87s-11.91-.09-11.91-.09a23.521,23.521,0,0,0,7.694-13.9S683.632,949.41,687.715,956.287Z" transform="translate(-404.93 -583.332)" fill="#163560"/>
      <path id="Path_12049" data-name="Path 12049" d="M724.618,959.538s4.014,1.5,5.666,4.427a19.9,19.9,0,0,1,2.672,11.305s4.078-9.82-.5-15.375C727.592,954.006,724.618,959.538,724.618,959.538Z" transform="translate(-443.175 -585.411)" fill="#163560"/>
      <path id="Path_12050" data-name="Path 12050" d="M661.1,1243.906a13.433,13.433,0,0,1,4.7-.641c1.883.264,3.276-.038,3.276.49s-2.431.773-2.947,1.026S661.1,1243.906,661.1,1243.906Z" transform="translate(-404.33 -760.349)" fill="#ffb27d"/>
      <path id="Path_12051" data-name="Path 12051" d="M596.948,1067.964s-14.033.984-19.412,14.06-15.585,35.032-15.585,38.725,5.7,15.079,36.319,21.626c0,0,3.167-3.331,2.975-5.966,0,0-19.113-16.416-19.061-18.335.1-3.629,3.133-8.42,19.913-25.206C606.66,1088.3,596.948,1067.964,596.948,1067.964Z" transform="translate(-343.688 -653.165)" fill="#632c84"/>
      <path id="Path_12052" data-name="Path 12052" d="M1232.356,781.076H1080.711a13.829,13.829,0,0,0-9.778,4.05L963.7,892.355a13.829,13.829,0,0,0-4.05,9.778v151.645a13.827,13.827,0,0,0,4.05,9.778l107.229,107.229a13.826,13.826,0,0,0,9.778,4.05h151.645a13.825,13.825,0,0,0,9.778-4.05l107.23-107.229a13.828,13.828,0,0,0,4.05-9.778V902.133a13.83,13.83,0,0,0-4.05-9.778l-107.23-107.23A13.828,13.828,0,0,0,1232.356,781.076Z" transform="translate(-586.922 -477.704)" fill="#f78248"/>
      <path id="Path_12053" data-name="Path 12053" d="M1252.726,1186.162H1122.417a19.745,19.745,0,0,1-14.052-5.819l-92.142-92.143a19.739,19.739,0,0,1-5.821-14.051V943.839a19.741,19.741,0,0,1,5.821-14.052l92.141-92.141a19.744,19.744,0,0,1,14.052-5.821h130.308a19.741,19.741,0,0,1,14.052,5.821l92.142,92.142a19.741,19.741,0,0,1,5.82,14.051v130.31a19.74,19.74,0,0,1-5.82,14.051l-92.142,92.142A19.742,19.742,0,0,1,1252.726,1186.162ZM1122.417,845.337a6.315,6.315,0,0,0-4.5,1.863l-92.142,92.142a6.316,6.316,0,0,0-1.863,4.5v130.31a6.316,6.316,0,0,0,1.863,4.5l92.142,92.143a6.319,6.319,0,0,0,4.5,1.862h130.308a6.321,6.321,0,0,0,4.5-1.862l92.142-92.142a6.321,6.321,0,0,0,1.862-4.5V943.839a6.318,6.318,0,0,0-1.862-4.5L1257.224,847.2a6.317,6.317,0,0,0-4.5-1.863Z" transform="translate(-617.96 -508.742)" fill="#ffe5d4"/>
      <path id="Path_12054" data-name="Path 12054" d="M1454.588,1103.766l-2.655-2.3a16.087,16.087,0,0,0-22.626,1.627l-14.994,17.318a3.535,3.535,0,0,1-6.208-2.314h0a38.174,38.174,0,0,0-.219-4.065V1005.006a13.057,13.057,0,0,0-13.019-13.019h-.962a13.057,13.057,0,0,0-13.019,13.019v70.959a3.117,3.117,0,0,1-3.117,3.117h0a3.442,3.442,0,0,1-3.442-3.442V991.257a12.62,12.62,0,0,0-12.584-12.583h-1.832a12.62,12.62,0,0,0-12.584,12.583V1076.2a2.886,2.886,0,0,1-2.886,2.887h0a3.673,3.673,0,0,1-3.674-3.673V1007.7a13.057,13.057,0,0,0-13.019-13.019h-.962a13.057,13.057,0,0,0-13.019,13.019v68.261a3.124,3.124,0,0,1-3.124,3.124h0a3.436,3.436,0,0,1-3.435-3.436v-53.406a13.057,13.057,0,0,0-13.019-13.019h-.962a13.057,13.057,0,0,0-13.019,13.019v93.77c0,.26.01.518.025.775-.015.436-.025.873-.025,1.313v51.613a38.253,38.253,0,0,0,38.141,38.141h51.613a38.194,38.194,0,0,0,32.075-17.571,80.653,80.653,0,0,1,6.76-9.127l47.415-54.763A16.087,16.087,0,0,0,1454.588,1103.766Z" transform="translate(-782.974 -598.555)" fill="#ffe5d4"/>
      <path id="Path_12055" data-name="Path 12055" d="M934.1,1651.858v7.663h-6.842v-7.458c-6.774-.411-13.274-2.532-17.038-5.474l3.763-8.348a27.662,27.662,0,0,0,13.274,4.858v-11.427c-7.6-1.847-16.08-4.379-16.08-14.164,0-7.253,5.268-13.479,16.08-14.711V1595.2H934.1v7.458a30.948,30.948,0,0,1,13.89,4.174l-3.421,8.416a27.991,27.991,0,0,0-10.469-3.558v11.632c7.595,1.779,15.943,4.31,15.943,13.958C950.047,1644.4,944.847,1650.558,934.1,1651.858Zm-6.842-30.244V1611.9c-3.627.821-5.063,2.805-5.063,5.063C922.2,1619.357,924.251,1620.657,927.262,1621.614ZM939.03,1638.1c0-2.395-1.984-3.7-4.926-4.722v9.443C937.525,1642.073,939.03,1640.294,939.03,1638.1Z" transform="translate(-556.691 -975.623)" fill="url(#linear-gradient)"/>
      <path id="Path_12056" data-name="Path 12056" d="M987.977,1552.106a5.362,5.362,0,0,0,0,10.723,5.362,5.362,0,1,0,0-10.723Z" transform="translate(-600.965 -949.265)" fill="url(#linear-gradient)"/>
      <path id="Path_12057" data-name="Path 12057" d="M998.6,1580.595a2.8,2.8,0,1,0,0,5.6,2.8,2.8,0,1,0,0-5.6Z" transform="translate(-609.027 -966.689)" fill="url(#linear-gradient)"/>
      <path id="Path_12058" data-name="Path 12058" d="M886.858,1622.433a2.8,2.8,0,1,0,0,5.6,2.8,2.8,0,0,0,0-5.6Z" transform="translate(-540.687 -992.276)" fill="url(#linear-gradient)"/>
      <path id="Path_12059" data-name="Path 12059" d="M819.249,1695.776l-.107-.01v-.654l-3.668.327-3.667-.327v.654l-.107.01s-15.843,12.437-13.711,31.022c0,0-.441,7.132,17.485,6.851,17.927.281,17.485-6.851,17.485-6.851C835.092,1708.213,819.249,1695.776,819.249,1695.776Z" transform="translate(-487.928 -1036.727)" fill="url(#linear-gradient-5)"/>
      <path id="Path_12060" data-name="Path 12060" d="M833.208,1672.406a4.915,4.915,0,0,1-3.649-1.083.929.929,0,0,0-1.2,0,4.915,4.915,0,0,1-3.649,1.083c-2.81-.266-4.372-.743-4.871.283l5.808,9.955,3.31,2.889,3.31-2.889,5.808-9.955C837.579,1671.663,836.018,1672.14,833.208,1672.406Z" transform="translate(-501.414 -1022.044)" fill="url(#linear-gradient-5)"/>
      <path id="Path_12061" data-name="Path 12061" d="M835.1,1738.456v2.3h-2.053v-2.238a9.736,9.736,0,0,1-5.113-1.643l1.129-2.5a8.306,8.306,0,0,0,3.984,1.458V1732.4c-2.28-.554-4.826-1.314-4.826-4.25,0-2.177,1.581-4.045,4.826-4.415v-2.279H835.1v2.239a9.284,9.284,0,0,1,4.168,1.253l-1.027,2.525a8.4,8.4,0,0,0-3.141-1.068v3.491c2.279.534,4.784,1.293,4.784,4.189C839.885,1736.217,838.325,1738.065,835.1,1738.456Zm-2.053-9.075v-2.916c-1.088.246-1.52.842-1.52,1.519C831.528,1728.7,832.144,1729.093,833.048,1729.38Zm3.531,4.948c0-.718-.6-1.109-1.478-1.417v2.833C836.128,1735.52,836.579,1734.985,836.579,1734.328Z" transform="translate(-506.363 -1052.838)" fill="url(#linear-gradient-7)"/>
      <path id="Path_12062" data-name="Path 12062" d="M832.668,1674.025a5.094,5.094,0,0,1-1.9.167c-.364-.034-.705-.072-1.027-.11l3.651,8.134Z" transform="translate(-507.468 -1023.83)" fill="url(#linear-gradient-8)"/>
      <path id="Path_12063" data-name="Path 12063" d="M832.668,1674.025a5.094,5.094,0,0,1-1.9.167c-.364-.034-.705-.072-1.027-.11l3.651,8.134Z" transform="translate(-507.468 -1023.83)" fill="url(#linear-gradient-9)"/>
      <path id="Path_12064" data-name="Path 12064" d="M845.721,1682.614l5.688-9.022c-.788.04-1.83.21-3.151.335a5.025,5.025,0,0,1-2.319-.307l-1.488,8.331Z" transform="translate(-516.464 -1023.565)" fill="url(#linear-gradient-10)"/>
      <path id="Path_12065" data-name="Path 12065" d="M845.721,1682.614l5.688-9.022c-.788.04-1.83.21-3.151.335a5.025,5.025,0,0,1-2.319-.307l-1.488,8.331Z" transform="translate(-516.464 -1023.565)" fill="url(#linear-gradient-11)"/>
      <path id="Path_12066" data-name="Path 12066" d="M830.7,1695.338a.762.762,0,0,1-.055-1.521l8.988-.663a.762.762,0,1,1,.112,1.519l-8.988.663Z" transform="translate(-507.589 -1035.528)" fill="url(#linear-gradient-7)"/>
      <path id="Path_12067" data-name="Path 12067" d="M839.53,1698.52h-.015l-9.011-.172a.762.762,0,0,1,.014-1.524h.015l9.011.172a.762.762,0,0,1-.014,1.524Z" transform="translate(-507.477 -1037.775)" fill="url(#linear-gradient-13)"/>
      <rect id="Rectangle_647" data-name="Rectangle 647" width="20.882" height="4.885" transform="translate(395.783 691.191)" fill="url(#linear-gradient)"/>
      <rect id="Rectangle_648" data-name="Rectangle 648" width="20.882" height="0.701" transform="translate(395.783 691.191)" fill="#ffce62"/>
      <rect id="Rectangle_649" data-name="Rectangle 649" width="0.908" height="4.885" transform="translate(397.547 691.191)" fill="#ffc137" opacity="0.3" style="mix-blend-mode: multiply;isolation: isolate"/>
      <rect id="Rectangle_650" data-name="Rectangle 650" width="0.908" height="4.885" transform="translate(400.288 691.191)" fill="#ffc137" opacity="0.3" style="mix-blend-mode: multiply;isolation: isolate"/>
      <rect id="Rectangle_651" data-name="Rectangle 651" width="0.908" height="4.885" transform="translate(403.029 691.191)" fill="#ffc137" opacity="0.3" style="mix-blend-mode: multiply;isolation: isolate"/>
      <rect id="Rectangle_652" data-name="Rectangle 652" width="0.908" height="4.885" transform="translate(405.77 691.191)" fill="#ffc137" style="mix-blend-mode: multiply;isolation: isolate"/>
      <rect id="Rectangle_653" data-name="Rectangle 653" width="0.908" height="4.885" transform="translate(408.511 691.191)" fill="#ffc137" style="mix-blend-mode: multiply;isolation: isolate"/>
      <rect id="Rectangle_654" data-name="Rectangle 654" width="0.908" height="4.885" transform="translate(411.252 691.191)" fill="#ffc137" style="mix-blend-mode: multiply;isolation: isolate"/>
      <rect id="Rectangle_655" data-name="Rectangle 655" width="0.908" height="4.885" transform="translate(413.993 691.191)" fill="#ffc137" style="mix-blend-mode: multiply;isolation: isolate"/>
      <rect id="Rectangle_656" data-name="Rectangle 656" width="11.426" height="4.885" transform="translate(403.828 691.191)" fill="#ffe6b7" opacity="0.5"/>
      <rect id="Rectangle_657" data-name="Rectangle 657" width="2.897" height="4.885" transform="translate(412.357 691.191)" fill="#ffe8c8" opacity="0.5"/>
      <rect id="Rectangle_658" data-name="Rectangle 658" width="20.882" height="4.885" transform="translate(369.74 691.191)" fill="url(#linear-gradient)"/>
      <rect id="Rectangle_659" data-name="Rectangle 659" width="20.882" height="0.701" transform="translate(369.74 691.191)" fill="#ffce62"/>
      <rect id="Rectangle_660" data-name="Rectangle 660" width="0.908" height="4.885" transform="translate(371.504 691.191)" fill="#ffc137" opacity="0.3" style="mix-blend-mode: multiply;isolation: isolate"/>
      <rect id="Rectangle_661" data-name="Rectangle 661" width="0.908" height="4.885" transform="translate(374.245 691.191)" fill="#ffc137" opacity="0.3" style="mix-blend-mode: multiply;isolation: isolate"/>
      <rect id="Rectangle_662" data-name="Rectangle 662" width="0.908" height="4.885" transform="translate(376.986 691.191)" fill="#ffc137" opacity="0.3" style="mix-blend-mode: multiply;isolation: isolate"/>
      <rect id="Rectangle_663" data-name="Rectangle 663" width="0.908" height="4.885" transform="translate(379.727 691.191)" fill="#ffc137" style="mix-blend-mode: multiply;isolation: isolate"/>
      <rect id="Rectangle_664" data-name="Rectangle 664" width="0.908" height="4.885" transform="translate(382.468 691.191)" fill="#ffc137" style="mix-blend-mode: multiply;isolation: isolate"/>
      <rect id="Rectangle_665" data-name="Rectangle 665" width="0.908" height="4.885" transform="translate(385.209 691.191)" fill="#ffc137" style="mix-blend-mode: multiply;isolation: isolate"/>
      <rect id="Rectangle_666" data-name="Rectangle 666" width="0.908" height="4.885" transform="translate(387.95 691.191)" fill="#ffc137" style="mix-blend-mode: multiply;isolation: isolate"/>
      <rect id="Rectangle_667" data-name="Rectangle 667" width="11.426" height="4.885" transform="translate(377.785 691.191)" fill="#ffe6b7" opacity="0.5"/>
      <rect id="Rectangle_668" data-name="Rectangle 668" width="2.897" height="4.885" transform="translate(386.314 691.191)" fill="#ffe8c8" opacity="0.5"/>
      <rect id="Rectangle_669" data-name="Rectangle 669" width="20.882" height="4.885" transform="translate(337.692 691.191)" fill="url(#linear-gradient)"/>
      <rect id="Rectangle_670" data-name="Rectangle 670" width="20.882" height="0.701" transform="translate(337.692 691.191)" fill="#ffce62"/>
      <rect id="Rectangle_671" data-name="Rectangle 671" width="0.908" height="4.885" transform="translate(339.456 691.191)" fill="#ffc137" opacity="0.3" style="mix-blend-mode: multiply;isolation: isolate"/>
      <rect id="Rectangle_672" data-name="Rectangle 672" width="0.908" height="4.885" transform="translate(342.197 691.191)" fill="#ffc137" opacity="0.3" style="mix-blend-mode: multiply;isolation: isolate"/>
      <rect id="Rectangle_673" data-name="Rectangle 673" width="0.908" height="4.885" transform="translate(344.938 691.191)" fill="#ffc137" opacity="0.3" style="mix-blend-mode: multiply;isolation: isolate"/>
      <rect id="Rectangle_674" data-name="Rectangle 674" width="0.908" height="4.885" transform="translate(347.679 691.191)" fill="#ffc137" style="mix-blend-mode: multiply;isolation: isolate"/>
      <rect id="Rectangle_675" data-name="Rectangle 675" width="0.908" height="4.885" transform="translate(350.42 691.191)" fill="#ffc137" style="mix-blend-mode: multiply;isolation: isolate"/>
      <rect id="Rectangle_676" data-name="Rectangle 676" width="0.908" height="4.885" transform="translate(353.161 691.191)" fill="#ffc137" style="mix-blend-mode: multiply;isolation: isolate"/>
      <rect id="Rectangle_677" data-name="Rectangle 677" width="0.908" height="4.885" transform="translate(355.902 691.191)" fill="#ffc137" style="mix-blend-mode: multiply;isolation: isolate"/>
      <rect id="Rectangle_678" data-name="Rectangle 678" width="11.426" height="4.885" transform="translate(345.737 691.191)" fill="#ffe6b7" opacity="0.5"/>
      <rect id="Rectangle_679" data-name="Rectangle 679" width="2.897" height="4.885" transform="translate(354.266 691.191)" fill="#ffe8c8" opacity="0.5"/>
      <rect id="Rectangle_680" data-name="Rectangle 680" width="20.882" height="4.885" transform="translate(346.757 686.305)" fill="url(#linear-gradient)"/>
      <rect id="Rectangle_681" data-name="Rectangle 681" width="20.882" height="0.701" transform="translate(346.757 686.305)" fill="#ffce62"/>
      <rect id="Rectangle_682" data-name="Rectangle 682" width="0.908" height="4.885" transform="translate(348.522 686.305)" fill="#ffc137" opacity="0.3" style="mix-blend-mode: multiply;isolation: isolate"/>
      <rect id="Rectangle_683" data-name="Rectangle 683" width="0.908" height="4.885" transform="translate(351.263 686.305)" fill="#ffc137" opacity="0.3" style="mix-blend-mode: multiply;isolation: isolate"/>
      <rect id="Rectangle_684" data-name="Rectangle 684" width="0.908" height="4.885" transform="translate(354.004 686.305)" fill="#ffc137" opacity="0.3" style="mix-blend-mode: multiply;isolation: isolate"/>
      <rect id="Rectangle_685" data-name="Rectangle 685" width="0.908" height="4.885" transform="translate(356.745 686.305)" fill="#ffc137" style="mix-blend-mode: multiply;isolation: isolate"/>
      <rect id="Rectangle_686" data-name="Rectangle 686" width="0.908" height="4.885" transform="translate(359.486 686.305)" fill="#ffc137" style="mix-blend-mode: multiply;isolation: isolate"/>
      <rect id="Rectangle_687" data-name="Rectangle 687" width="0.908" height="4.885" transform="translate(362.227 686.305)" fill="#ffc137" style="mix-blend-mode: multiply;isolation: isolate"/>
      <rect id="Rectangle_688" data-name="Rectangle 688" width="0.908" height="4.885" transform="translate(364.968 686.305)" fill="#ffc137" style="mix-blend-mode: multiply;isolation: isolate"/>
      <rect id="Rectangle_689" data-name="Rectangle 689" width="11.426" height="4.885" transform="translate(354.803 686.305)" fill="#ffe6b7" opacity="0.5"/>
      <rect id="Rectangle_690" data-name="Rectangle 690" width="2.897" height="4.885" transform="translate(363.332 686.305)" fill="#ffe8c8" opacity="0.5"/>
      <rect id="Rectangle_691" data-name="Rectangle 691" width="20.882" height="4.885" transform="translate(343.563 681.412)" fill="url(#linear-gradient)"/>
      <rect id="Rectangle_692" data-name="Rectangle 692" width="20.882" height="0.701" transform="translate(343.563 681.412)" fill="#ffce62"/>
      <rect id="Rectangle_693" data-name="Rectangle 693" width="0.908" height="4.885" transform="translate(345.327 681.412)" fill="#ffc137" opacity="0.3" style="mix-blend-mode: multiply;isolation: isolate"/>
      <rect id="Rectangle_694" data-name="Rectangle 694" width="0.908" height="4.885" transform="translate(348.068 681.412)" fill="#ffc137" opacity="0.3" style="mix-blend-mode: multiply;isolation: isolate"/>
      <rect id="Rectangle_695" data-name="Rectangle 695" width="0.908" height="4.885" transform="translate(350.809 681.412)" fill="#ffc137" opacity="0.3" style="mix-blend-mode: multiply;isolation: isolate"/>
      <rect id="Rectangle_696" data-name="Rectangle 696" width="0.908" height="4.885" transform="translate(353.55 681.412)" fill="#ffc137" style="mix-blend-mode: multiply;isolation: isolate"/>
      <rect id="Rectangle_697" data-name="Rectangle 697" width="0.908" height="4.885" transform="translate(356.291 681.412)" fill="#ffc137" style="mix-blend-mode: multiply;isolation: isolate"/>
      <rect id="Rectangle_698" data-name="Rectangle 698" width="0.908" height="4.885" transform="translate(359.032 681.412)" fill="#ffc137" style="mix-blend-mode: multiply;isolation: isolate"/>
      <rect id="Rectangle_699" data-name="Rectangle 699" width="0.908" height="4.885" transform="translate(361.773 681.412)" fill="#ffc137" style="mix-blend-mode: multiply;isolation: isolate"/>
      <rect id="Rectangle_700" data-name="Rectangle 700" width="11.426" height="4.885" transform="translate(351.608 681.412)" fill="#ffe6b7" opacity="0.5"/>
      <rect id="Rectangle_701" data-name="Rectangle 701" width="2.897" height="4.885" transform="translate(360.137 681.412)" fill="#ffe8c8" opacity="0.5"/>
      <rect id="Rectangle_702" data-name="Rectangle 702" width="20.882" height="4.885" transform="translate(399.617 686.305)" fill="url(#linear-gradient)"/>
      <rect id="Rectangle_703" data-name="Rectangle 703" width="20.882" height="0.701" transform="translate(399.617 686.305)" fill="#ffce62"/>
      <rect id="Rectangle_704" data-name="Rectangle 704" width="0.908" height="4.885" transform="translate(401.381 686.305)" fill="#ffc137" opacity="0.3" style="mix-blend-mode: multiply;isolation: isolate"/>
      <rect id="Rectangle_705" data-name="Rectangle 705" width="0.908" height="4.885" transform="translate(404.122 686.305)" fill="#ffc137" opacity="0.3" style="mix-blend-mode: multiply;isolation: isolate"/>
      <rect id="Rectangle_706" data-name="Rectangle 706" width="0.908" height="4.885" transform="translate(406.863 686.305)" fill="#ffc137" opacity="0.3" style="mix-blend-mode: multiply;isolation: isolate"/>
      <rect id="Rectangle_707" data-name="Rectangle 707" width="0.908" height="4.885" transform="translate(409.604 686.305)" fill="#ffc137" style="mix-blend-mode: multiply;isolation: isolate"/>
      <rect id="Rectangle_708" data-name="Rectangle 708" width="0.908" height="4.885" transform="translate(412.345 686.305)" fill="#ffc137" style="mix-blend-mode: multiply;isolation: isolate"/>
      <rect id="Rectangle_709" data-name="Rectangle 709" width="0.908" height="4.885" transform="translate(415.086 686.305)" fill="#ffc137" style="mix-blend-mode: multiply;isolation: isolate"/>
      <rect id="Rectangle_710" data-name="Rectangle 710" width="0.908" height="4.885" transform="translate(417.827 686.305)" fill="#ffc137" style="mix-blend-mode: multiply;isolation: isolate"/>
      <rect id="Rectangle_711" data-name="Rectangle 711" width="11.426" height="4.885" transform="translate(407.662 686.305)" fill="#ffe6b7" opacity="0.5"/>
      <rect id="Rectangle_712" data-name="Rectangle 712" width="2.897" height="4.885" transform="translate(416.191 686.305)" fill="#ffe8c8" opacity="0.5"/>
      <rect id="Rectangle_713" data-name="Rectangle 713" width="20.882" height="4.885" transform="translate(398.696 681.412)" fill="url(#linear-gradient)"/>
      <rect id="Rectangle_714" data-name="Rectangle 714" width="20.882" height="0.701" transform="translate(398.696 681.412)" fill="#ffce62"/>
      <rect id="Rectangle_715" data-name="Rectangle 715" width="0.908" height="4.885" transform="translate(400.461 681.412)" fill="#ffc137" opacity="0.3" style="mix-blend-mode: multiply;isolation: isolate"/>
      <rect id="Rectangle_716" data-name="Rectangle 716" width="0.908" height="4.885" transform="translate(403.202 681.412)" fill="#ffc137" opacity="0.3" style="mix-blend-mode: multiply;isolation: isolate"/>
      <rect id="Rectangle_717" data-name="Rectangle 717" width="0.908" height="4.885" transform="translate(405.943 681.412)" fill="#ffc137" opacity="0.3" style="mix-blend-mode: multiply;isolation: isolate"/>
      <rect id="Rectangle_718" data-name="Rectangle 718" width="0.908" height="4.885" transform="translate(408.684 681.412)" fill="#ffc137" style="mix-blend-mode: multiply;isolation: isolate"/>
      <rect id="Rectangle_719" data-name="Rectangle 719" width="0.908" height="4.885" transform="translate(411.425 681.412)" fill="#ffc137" style="mix-blend-mode: multiply;isolation: isolate"/>
      <rect id="Rectangle_720" data-name="Rectangle 720" width="0.908" height="4.885" transform="translate(414.166 681.412)" fill="#ffc137" style="mix-blend-mode: multiply;isolation: isolate"/>
      <rect id="Rectangle_721" data-name="Rectangle 721" width="0.908" height="4.885" transform="translate(416.907 681.412)" fill="#ffc137" style="mix-blend-mode: multiply;isolation: isolate"/>
      <rect id="Rectangle_722" data-name="Rectangle 722" width="11.426" height="4.885" transform="translate(406.742 681.412)" fill="#ffe6b7" opacity="0.5"/>
      <rect id="Rectangle_723" data-name="Rectangle 723" width="2.897" height="4.885" transform="translate(415.271 681.412)" fill="#ffe8c8" opacity="0.5"/>
      <rect id="Rectangle_724" data-name="Rectangle 724" width="20.882" height="4.885" transform="translate(402.53 676.526)" fill="url(#linear-gradient)"/>
      <rect id="Rectangle_725" data-name="Rectangle 725" width="20.882" height="0.701" transform="translate(402.53 676.526)" fill="#ffce62"/>
      <rect id="Rectangle_726" data-name="Rectangle 726" width="0.908" height="4.885" transform="translate(404.295 676.526)" fill="#ffc137" opacity="0.3" style="mix-blend-mode: multiply;isolation: isolate"/>
      <rect id="Rectangle_727" data-name="Rectangle 727" width="0.908" height="4.885" transform="translate(407.036 676.526)" fill="#ffc137" opacity="0.3" style="mix-blend-mode: multiply;isolation: isolate"/>
      <rect id="Rectangle_728" data-name="Rectangle 728" width="0.908" height="4.885" transform="translate(409.777 676.526)" fill="#ffc137" opacity="0.3" style="mix-blend-mode: multiply;isolation: isolate"/>
      <rect id="Rectangle_729" data-name="Rectangle 729" width="0.908" height="4.885" transform="translate(412.518 676.526)" fill="#ffc137" style="mix-blend-mode: multiply;isolation: isolate"/>
      <rect id="Rectangle_730" data-name="Rectangle 730" width="0.908" height="4.885" transform="translate(415.259 676.526)" fill="#ffc137" style="mix-blend-mode: multiply;isolation: isolate"/>
      <rect id="Rectangle_731" data-name="Rectangle 731" width="0.908" height="4.885" transform="translate(418 676.526)" fill="#ffc137" style="mix-blend-mode: multiply;isolation: isolate"/>
      <rect id="Rectangle_732" data-name="Rectangle 732" width="0.908" height="4.885" transform="translate(420.741 676.526)" fill="#ffc137" style="mix-blend-mode: multiply;isolation: isolate"/>
      <rect id="Rectangle_733" data-name="Rectangle 733" width="11.426" height="4.885" transform="translate(410.576 676.526)" fill="#ffe6b7" opacity="0.5"/>
      <rect id="Rectangle_734" data-name="Rectangle 734" width="2.897" height="4.885" transform="translate(419.105 676.526)" fill="#ffe8c8" opacity="0.5"/>
    </g>
  </g>
</svg>
