<?xml version="1.0" encoding="utf-8"?>
<!-- Generator: Adobe Illustrator 24.1.2, SVG Export Plug-In . SVG Version: 6.00 Build 0)  -->
<svg version="1.1" id="Layer_1" xmlns="http://www.w3.org/2000/svg" xmlns:xlink="http://www.w3.org/1999/xlink" x="0px" y="0px"
	 viewBox="0 0 1215.1 307.6" style="enable-background:new 0 0 1215.1 307.6;" xml:space="preserve">
<style type="text/css">
	.st0{fill:#FFFFFF;}
	.st1{fill:#2ABD23;}
	.st2{fill:#571C7A;}
	.st3{fill:#545454;}
</style>
<image style="display:none;overflow:visible;" width="949" height="309" xlink:href="full-transparent.png"  transform="matrix(1.332 0 0 1.332 -46.7848 192.7408)">
</image>
<g>
	<g>
		<path class="st0" d="M246.9,93.9c0.3,0.1,0.5,0.3,0.8,0.4c4.3-4.7,8.5-9.6,12.9-14.2c1.8-1.9,2.5-3.5,1.5-6.2
			c-3.7-10.1-8.6-19.6-14.8-28.4c-6.8-9.4-14.9-17.5-24.2-24.4c-8-5.9-16.6-10.5-25.9-14.1C185.7,2.8,174,0.2,161.9,0
			c-7.3-0.1-14.7,0.6-21.9,1.6c-13.9,1.9-26.6,7.1-38.5,14.4c-10.8,6.6-20,14.9-28.1,24.7C65.8,49.8,60,60,55.9,71.1
			c-4.8,13-7.8,26.4-6.8,40.5c0.3,4.6-0.1,9.4,0.8,13.8c1.5,7.3,3.6,14.5,5.9,21.7c2.6,8.4,7.1,16,11.9,23.3
			c0.5,0.7,1.6,1.5,2.3,1.5c4.3-0.2,8.6-0.6,12.9-1.1c1.9-0.2,3.8-0.8,6-1.2c-1.9-3.5-3.4-6.8-5.3-9.7c-7.2-11.3-12-23.4-14-36.8
			c-1.7-11.2-1.3-22.2,1-33.1c3-14.5,9.6-27.5,19.3-38.7c10.6-12.3,23.6-21.5,39.3-26.6c10.4-3.4,21-5.6,32.1-4.5
			c6.1,0.6,12.3,0.8,18.2,2.1c12.9,2.9,24.5,8.7,34.9,17c9.7,7.7,17.4,16.9,23.2,27.7C242.1,75.3,245.3,84.3,246.9,93.9z
			 M20.2,137.8c-0.2-0.2-0.3-0.3-0.5-0.5c-0.6,0.8-1.3,1.5-1.9,2.3c-4.6,7-9.9,13.6-13.1,21.5c-3.3,8.1-5.8,16.2-4.3,25.2
			c1.3,8,5.3,14.4,11.6,19.2c12.7,9.7,27.8,12.1,43.1,12.8c9,0.5,18.2,0,27.2-1c11.1-1.2,22.2-2.9,33-5.4c12-2.7,23.9-5.9,35.4-10.1
			c15.2-5.4,30.3-11.5,45.1-18.2c21.2-9.6,41.2-21.5,60.2-35.1c10.8-7.7,21.1-16,30.5-25.4c6.4-6.4,12.3-13.3,18-20.2
			c6.7-8.1,11.9-17.1,14.8-27.3c1.4-4.9,2.5-9.9,1.9-14.4c-1.3,3.7-2.6,7.9-4.4,11.9c-6.1,13.8-15.8,25.1-26.3,35.7
			c-6.5,6.5-13.5,12.6-20.9,18.1c-10.8,8.1-21.8,15.9-33.3,23c-9.9,6.2-20.4,11.5-30.9,16.7c-9.6,4.7-19.5,9.1-29.5,13
			c-10.8,4.2-21.8,8.1-32.9,11.3c-10.3,3-20.9,5.3-31.5,7.3c-9.3,1.7-18.8,3.2-28.2,3.7c-11.3,0.7-22.7,0.7-33.9-1.6
			c-8.5-1.7-16.7-4.2-24-9.1c-4.7-3.2-8.5-7.1-10.9-12.3c-4.3-9.3-3.6-18.7-0.3-28.1C16,146.6,18.3,142.3,20.2,137.8z M52.4,184.3
			c1.3,0.4,1.8,0.6,2.3,0.7c4.5,0.6,8.9,1.5,13.4,1.7c7.6,0.4,15.4,1,22.9,0.4c9.8-0.8,19.6-2.3,29.2-4.4c13-3,26.1-6.1,38.7-10.6
			c14.7-5.2,28.9-11.5,43.1-18c8.9-4,17.5-8.7,25.8-13.7c9.7-5.9,19.2-12.2,28.2-19.1c9.4-7.2,18.4-14.9,26.9-23.1
			c7.4-7.1,13.8-15.3,18.7-24.3c4.5-8.4,8.4-17,7.1-27c-0.9-7.5-4.4-13.4-10.2-17.9c-7.1-5.4-15.3-8.3-24-9.7
			c-5-0.8-10.1-1.4-15.1-2.1c2.8,1.5,5.7,2.2,8.4,3.4c7.2,3,13.4,7.2,17.4,14.2c4.6,8.3,4.2,17,1.5,25.7
			c-4.1,13.1-11.9,24-21.2,33.6c-7.8,8.1-16.2,15.6-24.9,22.7c-13.9,11.3-29,20.9-44.9,29c-12.3,6.3-25,11.9-37.6,17.4
			c-8,3.5-16.2,6.7-24.6,9c-13.1,3.6-26.3,6.7-39.6,9.5c-7.3,1.5-14.9,2.1-22.4,2.6C65.4,184.6,59.3,184.3,52.4,184.3z M92.8,241.3
			c0.8,0.1,1.2,0.1,1.5,0.1c42.4,0,84.8,0,127.2,0.1c2.2,0,2.7-1.1,3.1-2.8c1.8-7.7,3.4-15.4,5.3-23c3-11.9,6.6-23.7,12.5-34.5
			c2.3-4.3,5.2-8.3,8.2-13.2c-1.9,1-3.2,1.6-4.4,2.3c-7,4.1-14,8.3-21,12.4c-3.3,1.9-6.3,3.6-7.5,7.7c-2.8,9.3-6.2,18.5-9.1,27.7
			c-0.7,2.2-1.6,3.1-4.1,3.1c-23.7-0.1-47.4-0.1-71.1,0c-1.9,0-3.8,0.3-5.6,0.6c-8.1,1.6-16.1,3.4-24.2,5.1
			c-4.4,0.9-8.8,1.6-13.3,2.5C91.2,233.5,92,237.4,92.8,241.3z M92.8,253.6c0.9,12.5,9.9,20.8,21.7,20.8c29.4,0.1,58.8,0.1,88.2,0
			c10.2-0.1,18.2-7.3,20.7-17.1c0.9-3.7,0.8-3.7-3-3.7c-41.4,0-82.9,0-124.3,0C95.1,253.6,94,253.6,92.8,253.6z M116.3,287.2
			c0.3,0.7,0.5,1.3,0.8,1.7c8.3,11.9,19.5,18.4,34.1,18.6c4.4,0.1,8.7,0,13.1,0c12.3,0.1,22.7-4.3,31.2-13.2c1.9-2,3.5-4.5,5.5-7.1
			C172.4,287.2,144.5,287.2,116.3,287.2z"/>
		<path class="st1" d="M246.9,93.9c-1.5-9.6-4.8-18.7-9.4-27.2c-5.8-10.8-13.5-20-23.2-27.7c-10.4-8.3-22-14.1-34.9-17
			c-5.9-1.3-12.1-1.5-18.2-2.1c-11-1.1-21.7,1.1-32.1,4.5c-15.6,5.1-28.6,14.3-39.3,26.6c-9.6,11.2-16.3,24.2-19.3,38.7
			c-2.3,10.9-2.7,22-1,33.1c2,13.4,6.8,25.5,14,36.8c1.9,3,3.4,6.2,5.3,9.7c-2.2,0.5-4.1,1-6,1.2c-4.3,0.5-8.6,0.9-12.9,1.1
			c-0.8,0-1.9-0.7-2.3-1.5c-4.8-7.3-9.2-14.9-11.9-23.3c-2.2-7.1-4.4-14.3-5.9-21.7c-0.9-4.5-0.5-9.2-0.8-13.8
			c-1-14,2-27.4,6.8-40.5C60,60,65.8,49.8,73.4,40.7c8-9.7,17.3-18.1,28.1-24.7C113.4,8.8,126.1,3.6,140,1.7
			c7.3-1,14.6-1.8,21.9-1.6C174,0.2,185.7,2.8,197,7.1c9.3,3.6,17.9,8.2,25.9,14.1c9.3,6.9,17.5,15,24.2,24.4
			c6.3,8.8,11.1,18.3,14.8,28.4c1,2.6,0.3,4.3-1.5,6.2c-4.4,4.6-8.6,9.4-12.9,14.2C247.4,94.2,247.1,94.1,246.9,93.9z"/>
		<path class="st2" d="M20.2,137.8c-2,4.4-4.2,8.8-5.8,13.3c-3.3,9.3-4,18.8,0.3,28.1c2.4,5.1,6.2,9.1,10.9,12.3
			c7.3,4.9,15.5,7.4,24,9.1c11.2,2.2,22.6,2.3,33.9,1.6c9.4-0.6,18.9-2,28.2-3.7c10.6-2,21.2-4.3,31.5-7.3
			c11.1-3.2,22.1-7.1,32.9-11.3c10-3.9,19.9-8.3,29.5-13c10.5-5.2,21-10.5,30.9-16.7c11.4-7.1,22.5-14.9,33.3-23
			c7.4-5.5,14.4-11.6,20.9-18.1c10.5-10.5,20.2-21.8,26.3-35.7c1.8-4,3-8.2,4.4-11.9c0.6,4.6-0.4,9.5-1.9,14.4
			c-3,10.2-8.2,19.2-14.8,27.3c-5.7,7-11.6,13.9-18,20.2c-9.4,9.4-19.7,17.6-30.5,25.4c-19,13.6-39,25.4-60.2,35.1
			c-14.7,6.7-29.8,12.7-45.1,18.2c-11.5,4.1-23.5,7.3-35.4,10.1c-10.9,2.5-22,4.2-33,5.4c-9,1-18.1,1.5-27.2,1
			c-15.3-0.8-30.3-3.2-43.1-12.8c-6.4-4.8-10.3-11.2-11.6-19.2c-1.5-9,0.9-17.1,4.3-25.2c3.3-7.9,8.5-14.5,13.1-21.5
			c0.5-0.8,1.2-1.6,1.9-2.3C19.9,137.5,20.1,137.7,20.2,137.8z"/>
		<path class="st1" d="M52.4,184.3c6.9,0,13,0.3,19.1-0.1c7.5-0.5,15.1-1.1,22.4-2.6c13.3-2.7,26.5-5.8,39.6-9.5
			c8.4-2.3,16.6-5.5,24.6-9c12.7-5.5,25.3-11.1,37.6-17.4c15.9-8.1,31.1-17.7,44.9-29c8.7-7.1,17.1-14.6,24.9-22.7
			c9.3-9.6,17.1-20.5,21.2-33.6c2.7-8.7,3.1-17.4-1.5-25.7c-3.9-7-10.2-11.2-17.4-14.2c-2.7-1.2-5.7-1.9-8.4-3.4
			c5,0.7,10.1,1.3,15.1,2.1c8.8,1.4,17,4.3,24,9.7c5.8,4.5,9.3,10.4,10.2,17.9c1.2,10-2.6,18.6-7.1,27c-4.9,9.1-11.3,17.2-18.7,24.3
			c-8.5,8.2-17.5,15.9-26.9,23.1c-9,6.9-18.6,13.2-28.2,19.1c-8.3,5.1-16.9,9.7-25.8,13.7c-14.2,6.4-28.4,12.8-43.1,18
			c-12.6,4.4-25.7,7.6-38.7,10.6c-9.6,2.2-19.4,3.6-29.2,4.4c-7.6,0.6-15.3,0-22.9-0.4c-4.5-0.2-8.9-1.1-13.4-1.7
			C54.2,184.9,53.7,184.7,52.4,184.3z"/>
		<path class="st2" d="M92.8,241.3c-0.8-4-1.6-7.8-2.5-12c4.6-0.8,9-1.6,13.3-2.5c8.1-1.6,16.1-3.4,24.2-5.1
			c1.8-0.4,3.7-0.6,5.6-0.6c23.7,0,47.4-0.1,71.1,0c2.5,0,3.4-0.9,4.1-3.1c3-9.3,6.3-18.4,9.1-27.7c1.2-4.1,4.2-5.8,7.5-7.7
			c7-4.1,14-8.3,21-12.4c1.2-0.7,2.4-1.3,4.4-2.3c-3,4.8-5.9,8.9-8.2,13.2c-5.9,10.9-9.5,22.6-12.5,34.5c-1.9,7.6-3.5,15.3-5.3,23
			c-0.4,1.6-0.9,2.8-3.1,2.8c-42.4-0.1-84.8-0.1-127.2-0.1C93.9,241.4,93.6,241.4,92.8,241.3z"/>
		<path class="st2" d="M92.8,253.6c1.2,0,2.2,0,3.3,0c41.4,0,82.9,0,124.3,0c3.8,0,4,0,3,3.7c-2.5,9.8-10.5,17.1-20.7,17.1
			c-29.4,0.1-58.8,0.1-88.2,0C102.8,274.4,93.8,266.1,92.8,253.6z"/>
		<path class="st2" d="M116.3,287.2c28.1,0,56,0,84.6,0c-2,2.6-3.5,5.1-5.5,7.1c-8.5,8.9-18.9,13.3-31.2,13.2c-4.4,0-8.7,0.1-13.1,0
			c-14.6-0.3-25.9-6.7-34.1-18.6C116.8,288.5,116.6,287.9,116.3,287.2z"/>
	</g>
	<g>
		<path d="M375.8,163.4h-26.2V64.9h58.2v21.4h-32v18.8h29.5v21.4h-29.5V163.4z"/>
		<path d="M482.4,163.4H424V64.9h58.5v21.4h-31.9v15.5h29.5v21.4h-29.5v18.6h31.9V163.4z"/>
		<path d="M583.3,112.1c0,16.4-4.5,29.1-13.6,38s-21.8,13.3-38.2,13.3h-31.9V64.9h34.1c15.8,0,28,4,36.6,12.1
			S583.3,96.8,583.3,112.1z M555.7,113c0-9-1.8-15.7-5.4-20.1c-3.6-4.4-9-6.5-16.3-6.5h-7.7v55.2h5.9c8.1,0,14-2.3,17.8-7
			S555.7,122.7,555.7,113z"/>
		<path d="M672.5,96.2c0,11-3.2,19.5-9.7,25.5c-6.5,6-15.7,9-27.7,9h-7.5v32.7H601V64.9h34.1c12.4,0,21.8,2.7,28,8.2
			C669.3,78.5,672.5,86.2,672.5,96.2z M627.6,109h4.9c4,0,7.2-1.1,9.5-3.4c2.4-2.2,3.5-5.3,3.5-9.3c0-6.6-3.7-10-11.1-10h-6.9V109z"
			/>
		<path d="M688.2,163.4V64.9h26.8v98.5H688.2z"/>
		<path d="M807.7,96.2c0,11-3.2,19.5-9.7,25.5c-6.5,6-15.7,9-27.7,9h-7.5v32.7h-26.6V64.9h34.1c12.4,0,21.8,2.7,28,8.2
			C804.6,78.5,807.7,86.2,807.7,96.2z M762.8,109h4.9c4,0,7.2-1.1,9.5-3.4c2.4-2.2,3.5-5.3,3.5-9.3c0-6.6-3.7-10-11.1-10h-6.9V109z"
			/>
		<path d="M881.9,163.4h-58.5V64.9h58.5v21.4H850v15.5h29.5v21.4H850v18.6h31.9V163.4z"/>
		<path d="M899.1,163.4V64.9h26.6v77h37.9v21.5H899.1z"/>
		<path d="M979.5,163.4V64.9h26.8v98.5H979.5z"/>
		<path d="M1121.3,163.4h-34.9l-36-69.4h-0.6c0.9,10.9,1.3,19.2,1.3,25v44.4h-23.6V64.9h34.8l35.8,68.5h0.4
			c-0.6-9.9-0.9-17.9-0.9-23.9V64.9h23.7V163.4z"/>
		<path d="M1201.1,163.4h-58.5V64.9h58.5v21.4h-31.9v15.5h29.5v21.4h-29.5v18.6h31.9V163.4z"/>
	</g>
	<g>
		<path class="st3" d="M365.7,267.6c0,0.3-0.1,0.5-0.3,0.6s-0.4,0.2-0.7,0.3s-0.7,0.1-1.3,0.1c-0.6,0-1,0-1.3-0.1s-0.6-0.2-0.7-0.3
			s-0.2-0.3-0.2-0.6v-2.9c-1.3,1.4-2.7,2.4-4.2,3.2c-1.6,0.8-3.2,1.1-4.9,1.1c-1.5,0-2.9-0.2-4.1-0.6c-1.2-0.4-2.3-1-3.2-1.7
			c-0.9-0.8-1.5-1.7-2-2.8c-0.5-1.1-0.7-2.3-0.7-3.7c0-1.6,0.3-3.1,1-4.3s1.6-2.2,2.9-3s2.8-1.4,4.6-1.8c1.8-0.4,3.8-0.6,6.1-0.6h4
			v-2.3c0-1.1-0.1-2.1-0.4-3s-0.6-1.6-1.1-2.1s-1.2-1-2-1.3c-0.8-0.3-1.9-0.4-3.1-0.4c-1.3,0-2.5,0.2-3.5,0.5c-1,0.3-2,0.7-2.7,1
			c-0.8,0.4-1.4,0.7-2,1c-0.5,0.3-0.9,0.5-1.2,0.5c-0.2,0-0.3,0-0.5-0.1s-0.2-0.2-0.3-0.4c-0.1-0.2-0.2-0.4-0.2-0.7
			c0-0.3-0.1-0.6-0.1-0.9c0-0.5,0-1,0.1-1.3c0.1-0.3,0.3-0.6,0.5-0.9c0.3-0.3,0.8-0.6,1.5-1s1.5-0.7,2.4-1s1.9-0.6,3-0.8
			s2.2-0.3,3.3-0.3c2.1,0,3.9,0.2,5.3,0.7s2.6,1.2,3.5,2.1c0.9,0.9,1.6,2,2,3.4s0.6,2.9,0.6,4.7V267.6z M360.4,254.4h-4.5
			c-1.5,0-2.7,0.1-3.8,0.4c-1.1,0.2-2,0.6-2.7,1.1c-0.7,0.5-1.2,1.1-1.6,1.7c-0.3,0.7-0.5,1.5-0.5,2.3c0,1.5,0.5,2.7,1.4,3.6
			c1,0.9,2.3,1.3,4,1.3c1.4,0,2.7-0.4,3.9-1.1c1.2-0.7,2.4-1.8,3.8-3.3V254.4z"/>
		<path class="st3" d="M415.2,267.6c0,0.2,0,0.3-0.1,0.5s-0.2,0.2-0.4,0.3c-0.2,0.1-0.4,0.1-0.7,0.2s-0.7,0.1-1.1,0.1
			c-0.5,0-0.8,0-1.1-0.1s-0.5-0.1-0.7-0.2c-0.2-0.1-0.3-0.2-0.4-0.3s-0.1-0.3-0.1-0.5v-3.8c-1.5,1.7-3.1,2.9-4.8,3.9
			c-1.6,0.9-3.4,1.4-5.4,1.4c-2.1,0-3.9-0.4-5.4-1.2c-1.5-0.8-2.7-1.9-3.7-3.4c-0.9-1.4-1.6-3.1-2-5c-0.4-1.9-0.6-3.9-0.6-6
			c0-2.5,0.3-4.7,0.8-6.8c0.5-2,1.3-3.7,2.4-5.1s2.4-2.5,3.9-3.3s3.4-1.1,5.4-1.1c1.7,0,3.2,0.4,4.7,1.1c1.4,0.7,2.8,1.8,4.2,3.3
			v-16.9c0-0.2,0-0.3,0.1-0.4c0.1-0.1,0.2-0.2,0.4-0.3s0.5-0.1,0.8-0.2s0.8-0.1,1.3-0.1c0.5,0,1,0,1.3,0.1s0.6,0.1,0.8,0.2
			s0.3,0.2,0.4,0.3c0.1,0.1,0.1,0.3,0.1,0.4V267.6z M409.9,247.2c-1.4-1.8-2.8-3.1-4.2-4.1c-1.3-0.9-2.7-1.4-4.2-1.4
			c-1.4,0-2.5,0.3-3.4,1s-1.7,1.5-2.3,2.5c-0.6,1.1-1,2.2-1.3,3.6c-0.3,1.3-0.4,2.7-0.4,4.1c0,1.5,0.1,2.9,0.3,4.3
			c0.2,1.4,0.6,2.6,1.2,3.7c0.6,1.1,1.3,2,2.2,2.6s2.1,1,3.5,1c0.7,0,1.4-0.1,2-0.3s1.3-0.5,2-1s1.4-1,2.2-1.8
			c0.8-0.7,1.5-1.6,2.4-2.7V247.2z"/>
		<path class="st3" d="M431,228.8c0,1.2-0.2,2.1-0.7,2.5s-1.3,0.7-2.6,0.7c-1.2,0-2.1-0.2-2.6-0.7c-0.5-0.4-0.7-1.3-0.7-2.5
			c0-1.2,0.2-2.1,0.7-2.5s1.3-0.7,2.6-0.7c1.2,0,2.1,0.2,2.6,0.7C430.8,226.7,431,227.5,431,228.8z M430.4,267.6
			c0,0.2,0,0.3-0.1,0.4c-0.1,0.1-0.2,0.2-0.4,0.3s-0.5,0.2-0.8,0.2s-0.8,0.1-1.3,0.1c-0.5,0-0.9,0-1.3-0.1s-0.6-0.1-0.8-0.2
			c-0.2-0.1-0.3-0.2-0.4-0.3c-0.1-0.1-0.1-0.3-0.1-0.4v-29c0-0.2,0-0.3,0.1-0.4s0.2-0.2,0.4-0.3c0.2-0.1,0.5-0.2,0.8-0.2
			s0.8-0.1,1.3-0.1c0.5,0,1,0,1.3,0.1s0.6,0.1,0.8,0.2s0.3,0.2,0.4,0.3s0.1,0.3,0.1,0.4V267.6z"/>
		<path class="st3" d="M464,238.5c0,0.1,0,0.2,0,0.3c0,0.1,0,0.2,0,0.3s0,0.2-0.1,0.4c0,0.1-0.1,0.3-0.1,0.4l-9.9,27.6
			c-0.1,0.2-0.2,0.4-0.3,0.6c-0.1,0.2-0.3,0.3-0.6,0.4s-0.6,0.1-1.1,0.2c-0.4,0-1,0-1.6,0s-1.2,0-1.6-0.1s-0.8-0.1-1-0.2
			s-0.5-0.2-0.6-0.4s-0.3-0.3-0.4-0.5l-9.9-27.6c-0.1-0.3-0.2-0.5-0.2-0.7c-0.1-0.2-0.1-0.3-0.1-0.4c0-0.1,0-0.2,0-0.2
			c0-0.2,0-0.3,0.1-0.5s0.2-0.2,0.4-0.3c0.2-0.1,0.5-0.1,0.8-0.1s0.7,0,1.2,0c0.6,0,1.1,0,1.5,0c0.4,0,0.7,0.1,0.9,0.2
			s0.4,0.2,0.5,0.3c0.1,0.1,0.2,0.3,0.3,0.5l8.2,23.9l0.1,0.4l0.1-0.4l8.1-23.9c0-0.2,0.1-0.4,0.2-0.5s0.3-0.2,0.5-0.3
			s0.5-0.1,0.8-0.2c0.4,0,0.8,0,1.4,0c0.5,0,0.9,0,1.2,0s0.6,0.1,0.8,0.2c0.2,0.1,0.3,0.2,0.4,0.3C463.9,238.2,464,238.3,464,238.5z
			"/>
		<path class="st3" d="M475.9,228.8c0,1.2-0.2,2.1-0.7,2.5s-1.3,0.7-2.6,0.7c-1.2,0-2.1-0.2-2.6-0.7c-0.5-0.4-0.7-1.3-0.7-2.5
			c0-1.2,0.2-2.1,0.7-2.5s1.3-0.7,2.6-0.7c1.2,0,2.1,0.2,2.6,0.7C475.7,226.7,475.9,227.5,475.9,228.8z M475.3,267.6
			c0,0.2,0,0.3-0.1,0.4c-0.1,0.1-0.2,0.2-0.4,0.3s-0.5,0.2-0.8,0.2s-0.8,0.1-1.3,0.1c-0.5,0-0.9,0-1.3-0.1s-0.6-0.1-0.8-0.2
			c-0.2-0.1-0.3-0.2-0.4-0.3c-0.1-0.1-0.1-0.3-0.1-0.4v-29c0-0.2,0-0.3,0.1-0.4s0.2-0.2,0.4-0.3c0.2-0.1,0.5-0.2,0.8-0.2
			s0.8-0.1,1.3-0.1c0.5,0,1,0,1.3,0.1s0.6,0.1,0.8,0.2s0.3,0.2,0.4,0.3s0.1,0.3,0.1,0.4V267.6z"/>
		<path class="st3" d="M503.4,259.7c0,1.5-0.3,2.8-0.8,4c-0.5,1.2-1.3,2.1-2.3,2.9s-2.2,1.4-3.6,1.8s-2.9,0.6-4.6,0.6
			c-1,0-2-0.1-2.9-0.2c-0.9-0.2-1.8-0.4-2.5-0.6c-0.7-0.2-1.4-0.5-1.9-0.8c-0.5-0.3-0.9-0.5-1.1-0.7s-0.4-0.5-0.5-0.9
			s-0.2-0.9-0.2-1.6c0-0.4,0-0.8,0.1-1s0.1-0.5,0.2-0.7s0.2-0.3,0.3-0.4c0.1-0.1,0.3-0.1,0.4-0.1c0.2,0,0.6,0.1,1,0.4
			c0.5,0.3,1,0.6,1.7,1c0.7,0.3,1.5,0.7,2.4,1c0.9,0.3,2,0.4,3.2,0.4c0.9,0,1.7-0.1,2.4-0.3s1.4-0.5,1.9-0.9s1-0.9,1.2-1.4
			c0.3-0.6,0.4-1.3,0.4-2.1c0-0.8-0.2-1.5-0.6-2.1c-0.4-0.6-1-1.1-1.7-1.5s-1.5-0.8-2.3-1.1s-1.7-0.7-2.7-1
			c-0.9-0.4-1.8-0.8-2.7-1.2c-0.9-0.5-1.6-1-2.3-1.7s-1.2-1.5-1.7-2.4c-0.4-0.9-0.6-2-0.6-3.3c0-1.1,0.2-2.2,0.7-3.3
			c0.4-1,1.1-2,2-2.7c0.9-0.8,2-1.4,3.3-1.9c1.3-0.5,2.9-0.7,4.6-0.7c0.8,0,1.5,0.1,2.3,0.2s1.5,0.3,2.1,0.5s1.2,0.4,1.6,0.6
			c0.4,0.2,0.8,0.4,1,0.6c0.2,0.2,0.4,0.3,0.5,0.5s0.1,0.3,0.2,0.4c0,0.2,0.1,0.4,0.1,0.6c0,0.2,0,0.5,0,0.9c0,0.4,0,0.7,0,1
			c0,0.3-0.1,0.5-0.2,0.7c-0.1,0.2-0.2,0.3-0.3,0.4s-0.2,0.1-0.4,0.1c-0.2,0-0.5-0.1-0.8-0.4s-0.8-0.5-1.4-0.8
			c-0.6-0.3-1.3-0.5-2-0.8s-1.7-0.4-2.7-0.4c-0.9,0-1.7,0.1-2.4,0.3s-1.3,0.5-1.7,0.9c-0.4,0.4-0.8,0.8-1,1.3
			c-0.2,0.5-0.3,1.1-0.3,1.7c0,0.8,0.2,1.5,0.6,2.1s1,1.1,1.7,1.5s1.5,0.8,2.4,1.2s1.8,0.7,2.7,1.1c0.9,0.4,1.8,0.8,2.7,1.2
			c0.9,0.5,1.7,1,2.4,1.6s1.2,1.4,1.7,2.3C503.2,257.4,503.4,258.4,503.4,259.7z"/>
		<path class="st3" d="M516.9,228.8c0,1.2-0.2,2.1-0.7,2.5s-1.3,0.7-2.6,0.7c-1.2,0-2.1-0.2-2.6-0.7c-0.5-0.4-0.7-1.3-0.7-2.5
			c0-1.2,0.2-2.1,0.7-2.5s1.3-0.7,2.6-0.7c1.2,0,2.1,0.2,2.6,0.7C516.7,226.7,516.9,227.5,516.9,228.8z M516.3,267.6
			c0,0.2,0,0.3-0.1,0.4c-0.1,0.1-0.2,0.2-0.4,0.3s-0.5,0.2-0.8,0.2s-0.8,0.1-1.3,0.1c-0.5,0-0.9,0-1.3-0.1c-0.3,0-0.6-0.1-0.8-0.2
			c-0.2-0.1-0.3-0.2-0.4-0.3c-0.1-0.1-0.1-0.3-0.1-0.4v-29c0-0.2,0-0.3,0.1-0.4s0.2-0.2,0.4-0.3c0.2-0.1,0.5-0.2,0.8-0.2
			c0.3,0,0.8-0.1,1.3-0.1c0.5,0,1,0,1.3,0.1s0.6,0.1,0.8,0.2s0.3,0.2,0.4,0.3s0.1,0.3,0.1,0.4V267.6z"/>
		<path class="st3" d="M553.1,252.7c0,2.4-0.3,4.5-0.9,6.5s-1.6,3.7-2.8,5.1s-2.8,2.6-4.6,3.4c-1.9,0.8-4,1.2-6.5,1.2
			c-2.4,0-4.5-0.4-6.2-1.1c-1.8-0.7-3.2-1.7-4.4-3.1s-2.1-3-2.6-4.9s-0.9-4.1-0.9-6.6c0-2.4,0.3-4.5,0.9-6.5c0.6-2,1.5-3.7,2.8-5.1
			s2.8-2.6,4.6-3.4s4-1.2,6.5-1.2c2.4,0,4.5,0.4,6.2,1.1c1.8,0.7,3.3,1.7,4.4,3.1s2.1,3,2.7,4.9S553.1,250.3,553.1,252.7z
			 M547.6,253.1c0-1.6-0.1-3.1-0.4-4.4s-0.8-2.6-1.4-3.7s-1.6-1.9-2.7-2.5c-1.1-0.6-2.6-0.9-4.3-0.9c-1.6,0-2.9,0.3-4.1,0.8
			s-2.1,1.3-2.8,2.4c-0.7,1-1.3,2.2-1.6,3.6s-0.5,2.9-0.5,4.6c0,1.6,0.1,3.1,0.4,4.5c0.3,1.4,0.8,2.6,1.5,3.7c0.7,1,1.6,1.9,2.7,2.5
			c1.1,0.6,2.6,0.9,4.3,0.9c1.6,0,2.9-0.3,4.1-0.8s2.1-1.3,2.8-2.4s1.3-2.2,1.6-3.6S547.6,254.8,547.6,253.1z"/>
		<path class="st3" d="M585.9,267.6c0,0.2,0,0.3-0.1,0.4c-0.1,0.1-0.2,0.2-0.4,0.3s-0.5,0.2-0.8,0.2s-0.8,0.1-1.3,0.1
			c-0.5,0-1,0-1.3-0.1s-0.6-0.1-0.8-0.2s-0.3-0.2-0.4-0.3c-0.1-0.1-0.1-0.3-0.1-0.4v-17c0-1.7-0.1-3-0.4-4s-0.6-1.9-1.1-2.6
			s-1.1-1.3-1.9-1.7s-1.7-0.6-2.7-0.6c-1.3,0-2.7,0.5-4,1.4s-2.7,2.3-4.2,4.2v20.3c0,0.2,0,0.3-0.1,0.4c-0.1,0.1-0.2,0.2-0.4,0.3
			s-0.5,0.2-0.8,0.2s-0.8,0.1-1.3,0.1c-0.5,0-0.9,0-1.3-0.1s-0.6-0.1-0.8-0.2c-0.2-0.1-0.3-0.2-0.4-0.3c-0.1-0.1-0.1-0.3-0.1-0.4
			v-29c0-0.2,0-0.3,0.1-0.4s0.2-0.2,0.4-0.3c0.2-0.1,0.4-0.2,0.7-0.2c0.3,0,0.7,0,1.2,0c0.5,0,0.9,0,1.2,0c0.3,0,0.6,0.1,0.7,0.2
			c0.2,0.1,0.3,0.2,0.4,0.3s0.1,0.3,0.1,0.4v3.8c1.6-1.8,3.3-3.2,4.9-4c1.6-0.8,3.3-1.3,4.9-1.3c1.9,0,3.6,0.3,4.9,1
			c1.3,0.7,2.4,1.5,3.2,2.6s1.4,2.4,1.8,3.9c0.4,1.5,0.5,3.2,0.5,5.3V267.6z"/>
		<path class="st3" d="M637.5,252.7c0,2.4-0.3,4.5-0.9,6.5s-1.6,3.7-2.8,5.1s-2.8,2.6-4.6,3.4c-1.9,0.8-4,1.2-6.5,1.2
			c-2.4,0-4.5-0.4-6.2-1.1c-1.8-0.7-3.2-1.7-4.4-3.1s-2.1-3-2.6-4.9s-0.9-4.1-0.9-6.6c0-2.4,0.3-4.5,0.9-6.5c0.6-2,1.5-3.7,2.8-5.1
			s2.8-2.6,4.6-3.4s4-1.2,6.5-1.2c2.4,0,4.5,0.4,6.2,1.1c1.8,0.7,3.3,1.7,4.4,3.1s2.1,3,2.7,4.9S637.5,250.3,637.5,252.7z
			 M632,253.1c0-1.6-0.1-3.1-0.4-4.4s-0.8-2.6-1.4-3.7s-1.6-1.9-2.7-2.5c-1.1-0.6-2.6-0.9-4.3-0.9c-1.6,0-2.9,0.3-4.1,0.8
			s-2.1,1.3-2.8,2.4c-0.7,1-1.3,2.2-1.6,3.6s-0.5,2.9-0.5,4.6c0,1.6,0.1,3.1,0.4,4.5c0.3,1.4,0.8,2.6,1.5,3.7c0.7,1,1.6,1.9,2.7,2.5
			c1.1,0.6,2.6,0.9,4.3,0.9c1.6,0,2.9-0.3,4.1-0.8s2.1-1.3,2.8-2.4s1.3-2.2,1.6-3.6S632,254.8,632,253.1z"/>
		<path class="st3" d="M661.2,226.6c0,0.4,0,0.7-0.1,1s-0.1,0.4-0.1,0.6c-0.1,0.2-0.1,0.3-0.2,0.3s-0.2,0.1-0.3,0.1
			c-0.2,0-0.3,0-0.6-0.1c-0.2-0.1-0.5-0.2-0.8-0.3s-0.7-0.2-1.1-0.3c-0.4-0.1-1-0.1-1.5-0.1c-0.8,0-1.5,0.1-2,0.4s-1,0.7-1.4,1.2
			c-0.3,0.5-0.6,1.3-0.7,2.1c-0.2,0.9-0.2,1.9-0.2,3.2v3.2h6.5c0.2,0,0.3,0,0.4,0.1c0.1,0.1,0.2,0.2,0.3,0.4
			c0.1,0.2,0.2,0.4,0.2,0.7c0.1,0.3,0.1,0.6,0.1,1c0,0.8-0.1,1.3-0.3,1.7s-0.5,0.5-0.8,0.5h-6.5v25.4c0,0.2,0,0.3-0.1,0.4
			c-0.1,0.1-0.2,0.2-0.4,0.3s-0.5,0.2-0.8,0.2s-0.8,0.1-1.3,0.1s-0.9,0-1.3-0.1s-0.6-0.1-0.8-0.2c-0.2-0.1-0.3-0.2-0.4-0.3
			c-0.1-0.1-0.1-0.3-0.1-0.4v-25.4h-4.1c-0.3,0-0.6-0.2-0.8-0.5s-0.3-0.9-0.3-1.7c0-0.4,0-0.8,0.1-1s0.1-0.5,0.2-0.7
			c0.1-0.2,0.2-0.3,0.3-0.4c0.1-0.1,0.3-0.1,0.5-0.1h4.1v-3c0-2,0.2-3.8,0.6-5.2c0.4-1.4,1-2.6,1.7-3.6s1.7-1.6,2.9-2
			c1.2-0.4,2.6-0.7,4.1-0.7c0.8,0,1.5,0.1,2.2,0.2c0.7,0.1,1.3,0.3,1.6,0.5c0.4,0.2,0.6,0.3,0.8,0.4s0.2,0.3,0.3,0.5
			s0.1,0.5,0.2,0.7C661.2,225.9,661.2,226.2,661.2,226.6z"/>
	</g>
	<g>
		<path class="st2" d="M699.4,234.7c1.2,0,2.1,0.1,2.9,0.3l-0.6,8c-0.7-0.2-1.5-0.3-2.5-0.3c-2.7,0-4.8,0.7-6.3,2.1
			c-1.5,1.4-2.3,3.3-2.3,5.8v15.8h-8.5v-31.1h6.4l1.3,5.2h0.4c1-1.7,2.3-3.1,3.9-4.2C695.7,235.3,697.5,234.7,699.4,234.7z"/>
		<path class="st2" d="M724.3,266.4h-8.6v-33.5h-11v-7.2h30.7v7.2h-11V266.4z"/>
		<path class="st2" d="M763,266.4l-1.1-4h-0.4c-0.9,1.4-2.2,2.6-3.9,3.4c-1.7,0.8-3.6,1.2-5.7,1.2c-3.7,0-6.4-1-8.3-2.9
			c-1.9-2-2.8-4.8-2.8-8.4v-20.3h8.5v18.2c0,2.2,0.4,3.9,1.2,5.1c0.8,1.1,2.1,1.7,3.8,1.7c2.4,0,4.1-0.8,5.1-2.4
			c1.1-1.6,1.6-4.2,1.6-7.9v-14.6h8.5v31.1H763z"/>
		<path class="st2" d="M795.8,234.7c1.2,0,2.1,0.1,2.9,0.3l-0.6,8c-0.7-0.2-1.5-0.3-2.5-0.3c-2.7,0-4.8,0.7-6.3,2.1
			c-1.5,1.4-2.3,3.3-2.3,5.8v15.8h-8.5v-31.1h6.4l1.3,5.2h0.4c1-1.7,2.3-3.1,3.9-4.2C792.1,235.3,793.8,234.7,795.8,234.7z"/>
		<path class="st2" d="M833,266.4h-8.5v-18.2c0-2.2-0.4-3.9-1.2-5.1s-2.1-1.7-3.8-1.7c-2.4,0-4.1,0.8-5.1,2.4
			c-1.1,1.6-1.6,4.2-1.6,7.9v14.6h-8.5v-31.1h6.5l1.1,4h0.5c0.9-1.5,2.2-2.6,3.9-3.4c1.7-0.8,3.5-1.2,5.7-1.2c3.6,0,6.4,1,8.2,2.9
			c1.9,2,2.8,4.8,2.8,8.5V266.4z"/>
		<path class="st2" d="M855.8,267c-5,0-8.9-1.4-11.7-4.1s-4.2-6.7-4.2-11.7c0-5.2,1.3-9.2,3.9-12.1c2.6-2.8,6.2-4.3,10.8-4.3
			c4.4,0,7.8,1.3,10.3,3.8s3.7,6,3.7,10.4v4.1h-20.1c0.1,2.4,0.8,4.3,2.1,5.7s3.2,2,5.6,2c1.9,0,3.6-0.2,5.3-0.6s3.4-1,5.2-1.9v6.6
			c-1.5,0.7-3.1,1.3-4.8,1.7C860.3,266.8,858.3,267,855.8,267z M854.6,240.8c-1.8,0-3.2,0.6-4.2,1.7c-1,1.1-1.6,2.8-1.8,4.9h11.9
			c0-2.1-0.6-3.7-1.6-4.9C857.9,241.3,856.4,240.8,854.6,240.8z"/>
		<path class="st2" d="M892.8,234.7c1.2,0,2.1,0.1,2.9,0.3l-0.6,8c-0.7-0.2-1.5-0.3-2.5-0.3c-2.7,0-4.8,0.7-6.3,2.1
			c-1.5,1.4-2.3,3.3-2.3,5.8v15.8h-8.5v-31.1h6.4l1.3,5.2h0.4c1-1.7,2.3-3.1,3.9-4.2C889.1,235.3,890.9,234.7,892.8,234.7z"/>
		<path class="st1" d="M934.1,232.3c-3.2,0-5.8,1.2-7.5,3.7c-1.8,2.4-2.7,5.8-2.7,10.2c0,9.1,3.4,13.6,10.2,13.6
			c2.9,0,6.3-0.7,10.4-2.1v7.2c-3.3,1.4-7.1,2.1-11.2,2.1c-5.9,0-10.4-1.8-13.6-5.4c-3.1-3.6-4.7-8.7-4.7-15.5
			c0-4.2,0.8-7.9,2.3-11.1s3.8-5.6,6.6-7.3c2.9-1.7,6.3-2.5,10.1-2.5c4,0,7.9,1,11.9,2.9l-2.8,7c-1.5-0.7-3.1-1.4-4.6-1.9
			S935.6,232.3,934.1,232.3z"/>
		<path class="st1" d="M980.7,250.8c0,5.1-1.3,9-4,11.9s-6.4,4.3-11.2,4.3c-3,0-5.6-0.7-7.9-2c-2.3-1.3-4-3.2-5.3-5.6
			s-1.8-5.3-1.8-8.6c0-5.1,1.3-9,4-11.9c2.7-2.8,6.4-4.2,11.2-4.2c3,0,5.6,0.7,7.9,1.9c2.3,1.3,4,3.2,5.3,5.6
			S980.7,247.5,980.7,250.8z M959.2,250.8c0,3.1,0.5,5.4,1.5,7c1,1.6,2.7,2.4,4.9,2.4c2.3,0,3.9-0.8,4.9-2.4c1-1.6,1.5-3.9,1.5-7
			c0-3.1-0.5-5.4-1.5-6.9s-2.6-2.3-4.9-2.3c-2.3,0-3.9,0.8-4.9,2.3C959.7,245.4,959.2,247.7,959.2,250.8z"/>
		<path class="st1" d="M1016.5,266.4h-8.5v-18.2c0-2.2-0.4-3.9-1.2-5.1s-2.1-1.7-3.8-1.7c-2.4,0-4.1,0.8-5.1,2.4
			c-1.1,1.6-1.6,4.2-1.6,7.9v14.6h-8.5v-31.1h6.5l1.1,4h0.5c0.9-1.5,2.2-2.6,3.9-3.4c1.7-0.8,3.5-1.2,5.7-1.2c3.6,0,6.4,1,8.2,2.9
			c1.9,2,2.8,4.8,2.8,8.5V266.4z"/>
		<path class="st1" d="M1046.9,257.2c0,3.2-1.1,5.6-3.3,7.3s-5.5,2.5-9.9,2.5c-2.3,0-4.2-0.2-5.8-0.5c-1.6-0.3-3.1-0.8-4.5-1.3v-7
			c1.6,0.7,3.4,1.4,5.3,1.9c2,0.5,3.7,0.8,5.2,0.8c3.1,0,4.6-0.9,4.6-2.7c0-0.7-0.2-1.2-0.6-1.6c-0.4-0.4-1.1-0.9-2.1-1.4
			c-1-0.5-2.3-1.1-4-1.9c-2.4-1-4.2-1.9-5.3-2.8c-1.1-0.9-1.9-1.8-2.4-2.9c-0.5-1.1-0.8-2.5-0.8-4.1c0-2.8,1.1-4.9,3.2-6.4
			c2.1-1.5,5.2-2.3,9.1-2.3c3.7,0,7.4,0.8,10.9,2.4l-2.6,6.1c-1.6-0.7-3-1.2-4.4-1.6c-1.4-0.4-2.7-0.6-4.1-0.6c-2.5,0-3.8,0.7-3.8,2
			c0,0.8,0.4,1.4,1.2,2c0.8,0.6,2.6,1.4,5.3,2.5c2.4,1,4.2,1.9,5.3,2.8s2,1.8,2.5,2.9C1046.6,254.3,1046.9,255.6,1046.9,257.2z"/>
		<path class="st1" d="M1075.6,266.4l-1.1-4h-0.4c-0.9,1.4-2.2,2.6-3.9,3.4c-1.7,0.8-3.6,1.2-5.7,1.2c-3.7,0-6.4-1-8.3-2.9
			c-1.9-2-2.8-4.8-2.8-8.4v-20.3h8.5v18.2c0,2.2,0.4,3.9,1.2,5.1c0.8,1.1,2.1,1.7,3.8,1.7c2.4,0,4.1-0.8,5.1-2.4
			c1.1-1.6,1.6-4.2,1.6-7.9v-14.6h8.5v31.1H1075.6z"/>
		<path class="st1" d="M1099.5,266.4h-8.5v-43.3h8.5V266.4z"/>
		<path class="st1" d="M1121.5,260.2c1.5,0,3.3-0.3,5.3-1v6.3c-2.1,0.9-4.7,1.4-7.8,1.4c-3.4,0-5.9-0.9-7.4-2.6s-2.3-4.3-2.3-7.7
			v-15h-4.1v-3.6l4.7-2.8l2.4-6.6h5.4v6.6h8.7v6.4h-8.7v15c0,1.2,0.3,2.1,1,2.7S1120.4,260.2,1121.5,260.2z"/>
		<path class="st1" d="M1132.8,227.3c0-2.8,1.5-4.1,4.6-4.1s4.6,1.4,4.6,4.1c0,1.3-0.4,2.3-1.2,3.1c-0.8,0.7-1.9,1.1-3.5,1.1
			C1134.3,231.4,1132.8,230,1132.8,227.3z M1141.6,266.4h-8.5v-31.1h8.5V266.4z"/>
		<path class="st1" d="M1179.2,266.4h-8.5v-18.2c0-2.2-0.4-3.9-1.2-5.1s-2.1-1.7-3.8-1.7c-2.4,0-4.1,0.8-5.1,2.4
			c-1.1,1.6-1.6,4.2-1.6,7.9v14.6h-8.5v-31.1h6.5l1.1,4h0.5c0.9-1.5,2.2-2.6,3.9-3.4c1.7-0.8,3.5-1.2,5.7-1.2c3.6,0,6.4,1,8.2,2.9
			c1.9,2,2.8,4.8,2.8,8.5V266.4z"/>
		<path class="st1" d="M1215.1,235.3v4.3l-4.9,1.3c0.9,1.4,1.3,3,1.3,4.7c0,3.3-1.2,5.9-3.5,7.8c-2.3,1.9-5.6,2.8-9.7,2.8l-1.5-0.1
			l-1.3-0.1c-0.9,0.7-1.3,1.4-1.3,2.2c0,1.2,1.6,1.8,4.7,1.8h5.3c3.4,0,6,0.7,7.8,2.2c1.8,1.5,2.7,3.6,2.7,6.5
			c0,3.6-1.5,6.5-4.6,8.5c-3,2-7.4,3-13.1,3c-4.3,0-7.7-0.8-10-2.3c-2.3-1.5-3.4-3.6-3.4-6.4c0-1.9,0.6-3.4,1.8-4.7
			c1.2-1.3,2.9-2.2,5.1-2.7c-0.9-0.4-1.6-1-2.3-1.8c-0.6-0.8-1-1.7-1-2.7c0-1.2,0.3-2.2,1-3s1.7-1.6,3-2.3c-1.6-0.7-2.9-1.8-3.9-3.4
			c-1-1.6-1.4-3.4-1.4-5.5c0-3.4,1.1-6,3.3-7.9c2.2-1.9,5.4-2.8,9.5-2.8c0.9,0,1.9,0.1,3.1,0.2c1.2,0.2,2,0.3,2.3,0.3H1215.1z
			 M1191,270.8c0,1.2,0.6,2.1,1.7,2.8s2.7,1,4.7,1c3,0,5.4-0.4,7.2-1.3c1.7-0.8,2.6-2,2.6-3.4c0-1.2-0.5-2-1.5-2.4
			c-1-0.4-2.6-0.7-4.7-0.7h-4.4c-1.6,0-2.9,0.4-3.9,1.1C1191.6,268.6,1191,269.6,1191,270.8z M1194.1,245.5c0,1.7,0.4,3,1.2,4
			s1.9,1.5,3.5,1.5c1.6,0,2.8-0.5,3.5-1.5c0.7-1,1.1-2.3,1.1-4c0-3.7-1.5-5.6-4.6-5.6C1195.7,239.9,1194.1,241.7,1194.1,245.5z"/>
	</g>
</g>
<g>
	<g>
		<path class="st0" d="M170.5,732.9c0.3,0.1,0.5,0.3,0.8,0.4c4.3-4.7,8.5-9.6,12.9-14.2c1.8-1.9,2.5-3.5,1.5-6.2
			c-3.7-10.1-8.6-19.6-14.8-28.4c-6.8-9.4-14.9-17.5-24.2-24.4c-8-5.9-16.6-10.5-25.9-14.1c-11.3-4.4-23.1-6.9-35.1-7.1
			c-7.3-0.1-14.7,0.6-21.9,1.6c-13.9,1.9-26.6,7.1-38.5,14.4C14.3,661.5,5,669.9-3,679.6c-7.6,9.1-13.4,19.3-17.5,30.4
			c-4.8,13-7.8,26.4-6.8,40.5c0.3,4.6-0.1,9.4,0.8,13.8c1.5,7.3,3.6,14.5,5.9,21.7c2.6,8.4,7.1,16,11.9,23.3
			c0.5,0.7,1.6,1.5,2.3,1.5c4.3-0.2,8.6-0.6,12.9-1.1c1.9-0.2,3.8-0.8,6-1.2c-1.9-3.5-3.4-6.8-5.3-9.7c-7.2-11.3-12-23.4-14-36.8
			c-1.7-11.2-1.3-22.2,1-33.1c3-14.5,9.6-27.5,19.3-38.7C24,677.7,37,668.5,52.7,663.4c10.4-3.4,21-5.6,32.1-4.5
			c6.1,0.6,12.3,0.8,18.2,2.1c12.9,2.9,24.5,8.7,34.9,17c9.7,7.7,17.4,16.9,23.2,27.7C165.7,714.2,169,723.2,170.5,732.9z
			 M-56.1,776.7c-0.2-0.2-0.3-0.3-0.5-0.5c-0.6,0.8-1.3,1.5-1.9,2.3c-4.6,7-9.9,13.6-13.1,21.5c-3.3,8.1-5.8,16.2-4.3,25.2
			c1.3,8,5.3,14.4,11.6,19.2c12.7,9.7,27.8,12.1,43.1,12.8c9,0.5,18.2,0,27.2-1c11.1-1.2,22.2-2.9,33-5.4c12-2.7,23.9-5.9,35.4-10.1
			c15.2-5.4,30.3-11.5,45.1-18.2c21.2-9.6,41.2-21.5,60.2-35.1c10.8-7.7,21.1-16,30.5-25.4c6.4-6.4,12.3-13.3,18-20.2
			c6.7-8.1,11.9-17.1,14.8-27.3c1.4-4.9,2.5-9.9,1.9-14.4c-1.3,3.7-2.6,7.9-4.4,11.9c-6.1,13.8-15.8,25.1-26.3,35.7
			c-6.5,6.5-13.5,12.6-20.9,18.1c-10.8,8.1-21.8,15.9-33.3,23c-9.9,6.2-20.4,11.5-30.9,16.7c-9.6,4.7-19.5,9.1-29.5,13
			C89,822.9,78,826.8,66.9,830c-10.3,3-20.9,5.3-31.5,7.3c-9.3,1.7-18.8,3.2-28.2,3.7c-11.3,0.7-22.7,0.7-33.9-1.6
			c-8.5-1.7-16.7-4.2-24-9.1c-4.7-3.2-8.5-7.1-10.9-12.3c-4.3-9.3-3.6-18.7-0.3-28.1C-60.3,785.5-58.1,781.2-56.1,776.7z M-24,823.2
			c1.3,0.4,1.8,0.6,2.3,0.7c4.5,0.6,8.9,1.5,13.4,1.7c7.6,0.4,15.4,1,22.9,0.4c9.8-0.8,19.6-2.3,29.2-4.4c13-3,26.1-6.1,38.7-10.6
			c14.7-5.2,28.9-11.5,43.1-18c8.9-4,17.5-8.7,25.8-13.7c9.7-5.9,19.2-12.2,28.2-19.1c9.4-7.2,18.4-14.9,26.9-23.1
			c7.4-7.1,13.8-15.3,18.7-24.3c4.5-8.4,8.4-17,7.1-27c-0.9-7.5-4.4-13.4-10.2-17.9c-7.1-5.4-15.3-8.3-24-9.7
			c-5-0.8-10.1-1.4-15.1-2.1c2.8,1.5,5.7,2.2,8.4,3.4c7.2,3,13.4,7.2,17.4,14.2c4.6,8.3,4.2,17,1.5,25.7
			c-4.1,13.1-11.9,24-21.2,33.6c-7.8,8.1-16.2,15.6-24.9,22.7c-13.9,11.3-29,20.9-44.9,29c-12.3,6.3-25,11.9-37.6,17.4
			c-8,3.5-16.2,6.7-24.6,9c-13.1,3.6-26.3,6.7-39.6,9.5c-7.3,1.5-14.9,2.1-22.4,2.6C-10.9,823.5-17.1,823.2-24,823.2z M16.4,880.2
			c0.8,0.1,1.2,0.1,1.5,0.1c42.4,0,84.8,0,127.2,0.1c2.2,0,2.7-1.1,3.1-2.8c1.8-7.7,3.4-15.4,5.3-23c3-11.9,6.6-23.7,12.5-34.5
			c2.3-4.3,5.2-8.3,8.2-13.2c-1.9,1-3.2,1.6-4.4,2.3c-7,4.1-14,8.3-21,12.4c-3.3,1.9-6.3,3.6-7.5,7.7c-2.8,9.3-6.2,18.5-9.1,27.7
			c-0.7,2.2-1.6,3.1-4.1,3.1c-23.7-0.1-47.4-0.1-71.1,0c-1.9,0-3.8,0.3-5.6,0.6c-8.1,1.6-16.1,3.4-24.2,5.1
			c-4.4,0.9-8.8,1.6-13.3,2.5C14.8,872.4,15.6,876.3,16.4,880.2z M16.5,892.5c0.9,12.5,9.9,20.8,21.7,20.8c29.4,0.1,58.8,0.1,88.2,0
			c10.2-0.1,18.2-7.3,20.7-17.1c0.9-3.7,0.8-3.7-3-3.7c-41.4,0-82.9,0-124.3,0C18.7,892.5,17.7,892.5,16.5,892.5z M40,926.1
			c0.3,0.7,0.5,1.3,0.8,1.7c8.3,11.9,19.5,18.4,34.1,18.6c4.4,0.1,8.7,0,13.1,0c12.3,0.1,22.7-4.3,31.2-13.2c1.9-2,3.5-4.5,5.5-7.1
			C96,926.1,68.1,926.1,40,926.1z"/>
		<path class="st1" d="M170.5,732.9c-1.5-9.6-4.8-18.7-9.4-27.2c-5.8-10.8-13.5-20-23.2-27.7c-10.4-8.3-22-14.1-34.9-17
			c-5.9-1.3-12.1-1.5-18.2-2.1c-11-1.1-21.7,1.1-32.1,4.5C37,668.5,24,677.7,13.4,690c-9.6,11.2-16.3,24.2-19.3,38.7
			c-2.3,10.9-2.7,22-1,33.1c2,13.4,6.8,25.5,14,36.8c1.9,3,3.4,6.2,5.3,9.7c-2.2,0.5-4.1,1-6,1.2c-4.3,0.5-8.6,0.9-12.9,1.1
			c-0.8,0-1.9-0.7-2.3-1.5c-4.8-7.3-9.2-14.9-11.9-23.3c-2.2-7.1-4.4-14.3-5.9-21.7c-0.9-4.5-0.5-9.2-0.8-13.8
			c-1-14,2-27.4,6.8-40.5c4.1-11.1,9.9-21.3,17.5-30.4c8-9.7,17.3-18.1,28.1-24.7c11.9-7.2,24.7-12.4,38.5-14.4
			c7.3-1,14.6-1.8,21.9-1.6c12.1,0.2,23.8,2.7,35.1,7.1c9.3,3.6,17.9,8.2,25.9,14.1c9.3,6.9,17.5,15,24.2,24.4
			c6.3,8.8,11.1,18.3,14.8,28.4c1,2.6,0.3,4.3-1.5,6.2c-4.4,4.6-8.6,9.4-12.9,14.2C171,733.1,170.8,733,170.5,732.9z"/>
		<path class="st2" d="M-56.1,776.7c-2,4.4-4.2,8.8-5.8,13.3c-3.3,9.3-4,18.8,0.3,28.1c2.4,5.1,6.2,9.1,10.9,12.3
			c7.3,4.9,15.5,7.4,24,9.1c11.2,2.2,22.6,2.3,33.9,1.6c9.4-0.6,18.9-2,28.2-3.7c10.6-2,21.2-4.3,31.5-7.3
			c11.1-3.2,22.1-7.1,32.9-11.3c10-3.9,19.9-8.3,29.5-13c10.5-5.2,21-10.5,30.9-16.7c11.4-7.1,22.5-14.9,33.3-23
			c7.4-5.5,14.4-11.6,20.9-18.1c10.5-10.5,20.2-21.8,26.3-35.7c1.8-4,3-8.2,4.4-11.9c0.6,4.6-0.4,9.5-1.9,14.4
			c-3,10.2-8.2,19.2-14.8,27.3c-5.7,7-11.6,13.9-18,20.2c-9.4,9.4-19.7,17.6-30.5,25.4c-19,13.6-39,25.4-60.2,35.1
			c-14.7,6.7-29.8,12.7-45.1,18.2C62.9,845,51,848.3,39,851c-10.9,2.5-22,4.2-33,5.4c-9,1-18.1,1.5-27.2,1
			c-15.3-0.8-30.3-3.2-43.1-12.8c-6.4-4.8-10.3-11.2-11.6-19.2c-1.5-9,0.9-17.1,4.3-25.2c3.3-7.9,8.5-14.5,13.1-21.5
			c0.5-0.8,1.2-1.6,1.9-2.3C-56.5,776.4-56.3,776.6-56.1,776.7z"/>
		<path class="st1" d="M-24,823.2c6.9,0,13,0.3,19.1-0.1c7.5-0.5,15.1-1.1,22.4-2.6c13.3-2.7,26.5-5.8,39.6-9.5
			c8.4-2.3,16.6-5.5,24.6-9c12.7-5.5,25.3-11.1,37.6-17.4c15.9-8.1,31.1-17.7,44.9-29c8.7-7.1,17.1-14.6,24.9-22.7
			c9.3-9.6,17.1-20.5,21.2-33.6c2.7-8.7,3.1-17.4-1.5-25.7c-3.9-7-10.2-11.2-17.4-14.2c-2.7-1.2-5.7-1.9-8.4-3.4
			c5,0.7,10.1,1.3,15.1,2.1c8.8,1.4,17,4.3,24,9.7c5.8,4.5,9.3,10.4,10.2,17.9c1.2,10-2.6,18.6-7.1,27c-4.9,9.1-11.3,17.2-18.7,24.3
			c-8.5,8.2-17.5,15.9-26.9,23.1c-9,6.9-18.6,13.2-28.2,19.1c-8.3,5.1-16.9,9.7-25.8,13.7c-14.2,6.4-28.4,12.8-43.1,18
			c-12.6,4.4-25.7,7.6-38.7,10.6c-9.6,2.2-19.4,3.6-29.2,4.4c-7.6,0.6-15.3,0-22.9-0.4c-4.5-0.2-8.9-1.1-13.4-1.7
			C-22.2,823.8-22.7,823.6-24,823.2z"/>
		<path class="st2" d="M16.4,880.2c-0.8-4-1.6-7.8-2.5-12c4.6-0.8,9-1.6,13.3-2.5c8.1-1.6,16.1-3.4,24.2-5.1
			c1.8-0.4,3.7-0.6,5.6-0.6c23.7,0,47.4-0.1,71.1,0c2.5,0,3.4-0.9,4.1-3.1c3-9.3,6.3-18.4,9.1-27.7c1.2-4.1,4.2-5.8,7.5-7.7
			c7-4.1,14-8.3,21-12.4c1.2-0.7,2.4-1.3,4.4-2.3c-3,4.8-5.9,8.9-8.2,13.2c-5.9,10.9-9.5,22.6-12.5,34.5c-1.9,7.6-3.5,15.3-5.3,23
			c-0.4,1.6-0.9,2.8-3.1,2.8c-42.4-0.1-84.8-0.1-127.2-0.1C17.6,880.3,17.2,880.3,16.4,880.2z"/>
		<path class="st2" d="M16.5,892.5c1.2,0,2.2,0,3.3,0c41.4,0,82.9,0,124.3,0c3.8,0,4,0,3,3.7c-2.5,9.8-10.5,17.1-20.7,17.1
			c-29.4,0.1-58.8,0.1-88.2,0C26.4,913.3,17.4,905,16.5,892.5z"/>
		<path class="st2" d="M40,926.1c28.1,0,56,0,84.6,0c-2,2.6-3.5,5.1-5.5,7.1c-8.5,8.9-18.9,13.3-31.2,13.2c-4.4,0-8.7,0.1-13.1,0
			c-14.6-0.3-25.9-6.7-34.1-18.6C40.4,927.4,40.3,926.8,40,926.1z"/>
	</g>
	<text transform="matrix(1 0 0 1 262.5569 802.3333)" style="font-family:'OpenSans-Extrabold'; font-size:138px;">FEDPIPELINE</text>
	<text transform="matrix(1 0 0 1 262.5566 907.2886)" class="st3" style="font-family:'Calibri'; font-size:66px;">a division of</text>
	<text transform="matrix(1 0 0 1 601.2473 905.3297)"><tspan x="0" y="0" class="st2" style="font-family:'OpenSans-Bold'; font-size:57px;">rTurner</tspan><tspan x="219.3" y="0" style="font-family:'OpenSans-Bold'; font-size:57px;"> </tspan><tspan x="234.1" y="0" class="st1" style="font-family:'OpenSans-Bold'; font-size:57px;">Consulting</tspan></text>
</g>
</svg>
